<?xml version="1.0" encoding="utf-8" standalone="no"?>
<!DOCTYPE svg PUBLIC "-//W3C//DTD SVG 1.1//EN"
  "http://www.w3.org/Graphics/SVG/1.1/DTD/svg11.dtd">
<svg xmlns:xlink="http://www.w3.org/1999/xlink" width="1166.4pt" height="252pt" viewBox="0 0 1166.4 252" xmlns="http://www.w3.org/2000/svg" version="1.1">
 <metadata>
  <rdf:RDF xmlns:dc="http://purl.org/dc/elements/1.1/" xmlns:cc="http://creativecommons.org/ns#" xmlns:rdf="http://www.w3.org/1999/02/22-rdf-syntax-ns#">
   <cc:Work>
    <dc:type rdf:resource="http://purl.org/dc/dcmitype/StillImage"/>
    <dc:date>2026-06-26T14:36:52.000103</dc:date>
    <dc:format>image/svg+xml</dc:format>
    <dc:creator>
     <cc:Agent>
      <dc:title>Matplotlib v3.10.9, https://matplotlib.org/</dc:title>
     </cc:Agent>
    </dc:creator>
   </cc:Work>
  </rdf:RDF>
 </metadata>
 <defs>
  <style type="text/css">*{stroke-linejoin: round; stroke-linecap: butt}</style>
 </defs>
 <g id="figure_1">
  <g id="patch_1">
   <path d="M 0 252 
L 1166.4 252 
L 1166.4 0 
L 0 0 
z
" style="fill: #ffffff"/>
  </g>
  <g id="axes_1">
   <g id="patch_2">
    <path d="M 145.8 224.28 
L 1049.76 224.28 
L 1049.76 30.24 
L 145.8 30.24 
z
" style="fill: #ffffff"/>
   </g>
   <g id="matplotlib.axis_1">
    <g id="xtick_1">
     <g id="line2d_1">
      <defs>
       <path id="mae9bdf8f8b" d="M 0 0 
L 0 3.5 
" style="stroke: #000000; stroke-width: 0.8"/>
      </defs>
      <g>
       <use xlink:href="#mae9bdf8f8b" x="214.921146" y="224.28" style="stroke: #000000; stroke-width: 0.8"/>
      </g>
     </g>
     <g id="text_1">
      <!-- 2025-01 -->
      <g transform="translate(194.029739 238.878438) scale(0.1 -0.1)">
       <defs>
        <path id="DejaVuSans-32" d="M 1228 531 
L 3431 531 
L 3431 0 
L 469 0 
L 469 531 
Q 828 903 1448 1529 
Q 2069 2156 2228 2338 
Q 2531 2678 2651 2914 
Q 2772 3150 2772 3378 
Q 2772 3750 2511 3984 
Q 2250 4219 1831 4219 
Q 1534 4219 1204 4116 
Q 875 4013 500 3803 
L 500 4441 
Q 881 4594 1212 4672 
Q 1544 4750 1819 4750 
Q 2544 4750 2975 4387 
Q 3406 4025 3406 3419 
Q 3406 3131 3298 2873 
Q 3191 2616 2906 2266 
Q 2828 2175 2409 1742 
Q 1991 1309 1228 531 
z
" transform="scale(0.015625)"/>
        <path id="DejaVuSans-30" d="M 2034 4250 
Q 1547 4250 1301 3770 
Q 1056 3291 1056 2328 
Q 1056 1369 1301 889 
Q 1547 409 2034 409 
Q 2525 409 2770 889 
Q 3016 1369 3016 2328 
Q 3016 3291 2770 3770 
Q 2525 4250 2034 4250 
z
M 2034 4750 
Q 2819 4750 3233 4129 
Q 3647 3509 3647 2328 
Q 3647 1150 3233 529 
Q 2819 -91 2034 -91 
Q 1250 -91 836 529 
Q 422 1150 422 2328 
Q 422 3509 836 4129 
Q 1250 4750 2034 4750 
z
" transform="scale(0.015625)"/>
        <path id="DejaVuSans-35" d="M 691 4666 
L 3169 4666 
L 3169 4134 
L 1269 4134 
L 1269 2991 
Q 1406 3038 1543 3061 
Q 1681 3084 1819 3084 
Q 2600 3084 3056 2656 
Q 3513 2228 3513 1497 
Q 3513 744 3044 326 
Q 2575 -91 1722 -91 
Q 1428 -91 1123 -41 
Q 819 9 494 109 
L 494 744 
Q 775 591 1075 516 
Q 1375 441 1709 441 
Q 2250 441 2565 725 
Q 2881 1009 2881 1497 
Q 2881 1984 2565 2268 
Q 2250 2553 1709 2553 
Q 1456 2553 1204 2497 
Q 953 2441 691 2322 
L 691 4666 
z
" transform="scale(0.015625)"/>
        <path id="DejaVuSans-2d" d="M 313 2009 
L 1997 2009 
L 1997 1497 
L 313 1497 
L 313 2009 
z
" transform="scale(0.015625)"/>
        <path id="DejaVuSans-31" d="M 794 531 
L 1825 531 
L 1825 4091 
L 703 3866 
L 703 4441 
L 1819 4666 
L 2450 4666 
L 2450 531 
L 3481 531 
L 3481 0 
L 794 0 
L 794 531 
z
" transform="scale(0.015625)"/>
       </defs>
       <use xlink:href="#DejaVuSans-32"/>
       <use xlink:href="#DejaVuSans-30" transform="translate(63.623047 0)"/>
       <use xlink:href="#DejaVuSans-32" transform="translate(127.246094 0)"/>
       <use xlink:href="#DejaVuSans-35" transform="translate(190.869141 0)"/>
       <use xlink:href="#DejaVuSans-2d" transform="translate(254.492188 0)"/>
       <use xlink:href="#DejaVuSans-30" transform="translate(290.576172 0)"/>
       <use xlink:href="#DejaVuSans-31" transform="translate(354.199219 0)"/>
      </g>
     </g>
    </g>
    <g id="xtick_2">
     <g id="line2d_2">
      <g>
       <use xlink:href="#mae9bdf8f8b" x="301.968053" y="224.28" style="stroke: #000000; stroke-width: 0.8"/>
      </g>
     </g>
     <g id="text_2">
      <!-- 2025-03 -->
      <g transform="translate(281.076647 238.878438) scale(0.1 -0.1)">
       <defs>
        <path id="DejaVuSans-33" d="M 2597 2516 
Q 3050 2419 3304 2112 
Q 3559 1806 3559 1356 
Q 3559 666 3084 287 
Q 2609 -91 1734 -91 
Q 1441 -91 1130 -33 
Q 819 25 488 141 
L 488 750 
Q 750 597 1062 519 
Q 1375 441 1716 441 
Q 2309 441 2620 675 
Q 2931 909 2931 1356 
Q 2931 1769 2642 2001 
Q 2353 2234 1838 2234 
L 1294 2234 
L 1294 2753 
L 1863 2753 
Q 2328 2753 2575 2939 
Q 2822 3125 2822 3475 
Q 2822 3834 2567 4026 
Q 2313 4219 1838 4219 
Q 1578 4219 1281 4162 
Q 984 4106 628 3988 
L 628 4550 
Q 988 4650 1302 4700 
Q 1616 4750 1894 4750 
Q 2613 4750 3031 4423 
Q 3450 4097 3450 3541 
Q 3450 3153 3228 2886 
Q 3006 2619 2597 2516 
z
" transform="scale(0.015625)"/>
       </defs>
       <use xlink:href="#DejaVuSans-32"/>
       <use xlink:href="#DejaVuSans-30" transform="translate(63.623047 0)"/>
       <use xlink:href="#DejaVuSans-32" transform="translate(127.246094 0)"/>
       <use xlink:href="#DejaVuSans-35" transform="translate(190.869141 0)"/>
       <use xlink:href="#DejaVuSans-2d" transform="translate(254.492188 0)"/>
       <use xlink:href="#DejaVuSans-30" transform="translate(290.576172 0)"/>
       <use xlink:href="#DejaVuSans-33" transform="translate(354.199219 0)"/>
      </g>
     </g>
    </g>
    <g id="xtick_3">
     <g id="line2d_3">
      <g>
       <use xlink:href="#mae9bdf8f8b" x="391.965703" y="224.28" style="stroke: #000000; stroke-width: 0.8"/>
      </g>
     </g>
     <g id="text_3">
      <!-- 2025-05 -->
      <g transform="translate(371.074296 238.878438) scale(0.1 -0.1)">
       <use xlink:href="#DejaVuSans-32"/>
       <use xlink:href="#DejaVuSans-30" transform="translate(63.623047 0)"/>
       <use xlink:href="#DejaVuSans-32" transform="translate(127.246094 0)"/>
       <use xlink:href="#DejaVuSans-35" transform="translate(190.869141 0)"/>
       <use xlink:href="#DejaVuSans-2d" transform="translate(254.492188 0)"/>
       <use xlink:href="#DejaVuSans-30" transform="translate(290.576172 0)"/>
       <use xlink:href="#DejaVuSans-35" transform="translate(354.199219 0)"/>
      </g>
     </g>
    </g>
    <g id="xtick_4">
     <g id="line2d_4">
      <g>
       <use xlink:href="#mae9bdf8f8b" x="481.963352" y="224.28" style="stroke: #000000; stroke-width: 0.8"/>
      </g>
     </g>
     <g id="text_4">
      <!-- 2025-07 -->
      <g transform="translate(461.071946 238.878438) scale(0.1 -0.1)">
       <defs>
        <path id="DejaVuSans-37" d="M 525 4666 
L 3525 4666 
L 3525 4397 
L 1831 0 
L 1172 0 
L 2766 4134 
L 525 4134 
L 525 4666 
z
" transform="scale(0.015625)"/>
       </defs>
       <use xlink:href="#DejaVuSans-32"/>
       <use xlink:href="#DejaVuSans-30" transform="translate(63.623047 0)"/>
       <use xlink:href="#DejaVuSans-32" transform="translate(127.246094 0)"/>
       <use xlink:href="#DejaVuSans-35" transform="translate(190.869141 0)"/>
       <use xlink:href="#DejaVuSans-2d" transform="translate(254.492188 0)"/>
       <use xlink:href="#DejaVuSans-30" transform="translate(290.576172 0)"/>
       <use xlink:href="#DejaVuSans-37" transform="translate(354.199219 0)"/>
      </g>
     </g>
    </g>
    <g id="xtick_5">
     <g id="line2d_5">
      <g>
       <use xlink:href="#mae9bdf8f8b" x="573.436373" y="224.28" style="stroke: #000000; stroke-width: 0.8"/>
      </g>
     </g>
     <g id="text_5">
      <!-- 2025-09 -->
      <g transform="translate(552.544967 238.878438) scale(0.1 -0.1)">
       <defs>
        <path id="DejaVuSans-39" d="M 703 97 
L 703 672 
Q 941 559 1184 500 
Q 1428 441 1663 441 
Q 2288 441 2617 861 
Q 2947 1281 2994 2138 
Q 2813 1869 2534 1725 
Q 2256 1581 1919 1581 
Q 1219 1581 811 2004 
Q 403 2428 403 3163 
Q 403 3881 828 4315 
Q 1253 4750 1959 4750 
Q 2769 4750 3195 4129 
Q 3622 3509 3622 2328 
Q 3622 1225 3098 567 
Q 2575 -91 1691 -91 
Q 1453 -91 1209 -44 
Q 966 3 703 97 
z
M 1959 2075 
Q 2384 2075 2632 2365 
Q 2881 2656 2881 3163 
Q 2881 3666 2632 3958 
Q 2384 4250 1959 4250 
Q 1534 4250 1286 3958 
Q 1038 3666 1038 3163 
Q 1038 2656 1286 2365 
Q 1534 2075 1959 2075 
z
" transform="scale(0.015625)"/>
       </defs>
       <use xlink:href="#DejaVuSans-32"/>
       <use xlink:href="#DejaVuSans-30" transform="translate(63.623047 0)"/>
       <use xlink:href="#DejaVuSans-32" transform="translate(127.246094 0)"/>
       <use xlink:href="#DejaVuSans-35" transform="translate(190.869141 0)"/>
       <use xlink:href="#DejaVuSans-2d" transform="translate(254.492188 0)"/>
       <use xlink:href="#DejaVuSans-30" transform="translate(290.576172 0)"/>
       <use xlink:href="#DejaVuSans-39" transform="translate(354.199219 0)"/>
      </g>
     </g>
    </g>
    <g id="xtick_6">
     <g id="line2d_6">
      <g>
       <use xlink:href="#mae9bdf8f8b" x="663.434023" y="224.28" style="stroke: #000000; stroke-width: 0.8"/>
      </g>
     </g>
     <g id="text_6">
      <!-- 2025-11 -->
      <g transform="translate(642.542617 238.878438) scale(0.1 -0.1)">
       <use xlink:href="#DejaVuSans-32"/>
       <use xlink:href="#DejaVuSans-30" transform="translate(63.623047 0)"/>
       <use xlink:href="#DejaVuSans-32" transform="translate(127.246094 0)"/>
       <use xlink:href="#DejaVuSans-35" transform="translate(190.869141 0)"/>
       <use xlink:href="#DejaVuSans-2d" transform="translate(254.492188 0)"/>
       <use xlink:href="#DejaVuSans-31" transform="translate(290.576172 0)"/>
       <use xlink:href="#DejaVuSans-31" transform="translate(354.199219 0)"/>
      </g>
     </g>
    </g>
    <g id="xtick_7">
     <g id="line2d_7">
      <g>
       <use xlink:href="#mae9bdf8f8b" x="753.431673" y="224.28" style="stroke: #000000; stroke-width: 0.8"/>
      </g>
     </g>
     <g id="text_7">
      <!-- 2026-01 -->
      <g transform="translate(732.540267 238.878438) scale(0.1 -0.1)">
       <defs>
        <path id="DejaVuSans-36" d="M 2113 2584 
Q 1688 2584 1439 2293 
Q 1191 2003 1191 1497 
Q 1191 994 1439 701 
Q 1688 409 2113 409 
Q 2538 409 2786 701 
Q 3034 994 3034 1497 
Q 3034 2003 2786 2293 
Q 2538 2584 2113 2584 
z
M 3366 4563 
L 3366 3988 
Q 3128 4100 2886 4159 
Q 2644 4219 2406 4219 
Q 1781 4219 1451 3797 
Q 1122 3375 1075 2522 
Q 1259 2794 1537 2939 
Q 1816 3084 2150 3084 
Q 2853 3084 3261 2657 
Q 3669 2231 3669 1497 
Q 3669 778 3244 343 
Q 2819 -91 2113 -91 
Q 1303 -91 875 529 
Q 447 1150 447 2328 
Q 447 3434 972 4092 
Q 1497 4750 2381 4750 
Q 2619 4750 2861 4703 
Q 3103 4656 3366 4563 
z
" transform="scale(0.015625)"/>
       </defs>
       <use xlink:href="#DejaVuSans-32"/>
       <use xlink:href="#DejaVuSans-30" transform="translate(63.623047 0)"/>
       <use xlink:href="#DejaVuSans-32" transform="translate(127.246094 0)"/>
       <use xlink:href="#DejaVuSans-36" transform="translate(190.869141 0)"/>
       <use xlink:href="#DejaVuSans-2d" transform="translate(254.492188 0)"/>
       <use xlink:href="#DejaVuSans-30" transform="translate(290.576172 0)"/>
       <use xlink:href="#DejaVuSans-31" transform="translate(354.199219 0)"/>
      </g>
     </g>
    </g>
    <g id="xtick_8">
     <g id="line2d_8">
      <g>
       <use xlink:href="#mae9bdf8f8b" x="840.47858" y="224.28" style="stroke: #000000; stroke-width: 0.8"/>
      </g>
     </g>
     <g id="text_8">
      <!-- 2026-03 -->
      <g transform="translate(819.587174 238.878438) scale(0.1 -0.1)">
       <use xlink:href="#DejaVuSans-32"/>
       <use xlink:href="#DejaVuSans-30" transform="translate(63.623047 0)"/>
       <use xlink:href="#DejaVuSans-32" transform="translate(127.246094 0)"/>
       <use xlink:href="#DejaVuSans-36" transform="translate(190.869141 0)"/>
       <use xlink:href="#DejaVuSans-2d" transform="translate(254.492188 0)"/>
       <use xlink:href="#DejaVuSans-30" transform="translate(290.576172 0)"/>
       <use xlink:href="#DejaVuSans-33" transform="translate(354.199219 0)"/>
      </g>
     </g>
    </g>
    <g id="xtick_9">
     <g id="line2d_9">
      <g>
       <use xlink:href="#mae9bdf8f8b" x="930.47623" y="224.28" style="stroke: #000000; stroke-width: 0.8"/>
      </g>
     </g>
     <g id="text_9">
      <!-- 2026-05 -->
      <g transform="translate(909.584824 238.878438) scale(0.1 -0.1)">
       <use xlink:href="#DejaVuSans-32"/>
       <use xlink:href="#DejaVuSans-30" transform="translate(63.623047 0)"/>
       <use xlink:href="#DejaVuSans-32" transform="translate(127.246094 0)"/>
       <use xlink:href="#DejaVuSans-36" transform="translate(190.869141 0)"/>
       <use xlink:href="#DejaVuSans-2d" transform="translate(254.492188 0)"/>
       <use xlink:href="#DejaVuSans-30" transform="translate(290.576172 0)"/>
       <use xlink:href="#DejaVuSans-35" transform="translate(354.199219 0)"/>
      </g>
     </g>
    </g>
    <g id="xtick_10">
     <g id="line2d_10">
      <g>
       <use xlink:href="#mae9bdf8f8b" x="1020.47388" y="224.28" style="stroke: #000000; stroke-width: 0.8"/>
      </g>
     </g>
     <g id="text_10">
      <!-- 2026-07 -->
      <g transform="translate(999.582473 238.878438) scale(0.1 -0.1)">
       <use xlink:href="#DejaVuSans-32"/>
       <use xlink:href="#DejaVuSans-30" transform="translate(63.623047 0)"/>
       <use xlink:href="#DejaVuSans-32" transform="translate(127.246094 0)"/>
       <use xlink:href="#DejaVuSans-36" transform="translate(190.869141 0)"/>
       <use xlink:href="#DejaVuSans-2d" transform="translate(254.492188 0)"/>
       <use xlink:href="#DejaVuSans-30" transform="translate(290.576172 0)"/>
       <use xlink:href="#DejaVuSans-37" transform="translate(354.199219 0)"/>
      </g>
     </g>
    </g>
   </g>
   <g id="matplotlib.axis_2">
    <g id="ytick_1">
     <g id="line2d_11">
      <defs>
       <path id="m0046ed4166" d="M 0 0 
L -3.5 0 
" style="stroke: #000000; stroke-width: 0.8"/>
      </defs>
      <g>
       <use xlink:href="#m0046ed4166" x="145.8" y="187.731829" style="stroke: #000000; stroke-width: 0.8"/>
      </g>
     </g>
     <g id="text_11">
      <!-- 20 -->
      <g transform="translate(126.075 191.531047) scale(0.1 -0.1)">
       <use xlink:href="#DejaVuSans-32"/>
       <use xlink:href="#DejaVuSans-30" transform="translate(63.623047 0)"/>
      </g>
     </g>
    </g>
    <g id="ytick_2">
     <g id="line2d_12">
      <g>
       <use xlink:href="#m0046ed4166" x="145.8" y="146.752831" style="stroke: #000000; stroke-width: 0.8"/>
      </g>
     </g>
     <g id="text_12">
      <!-- 40 -->
      <g transform="translate(126.075 150.55205) scale(0.1 -0.1)">
       <defs>
        <path id="DejaVuSans-34" d="M 2419 4116 
L 825 1625 
L 2419 1625 
L 2419 4116 
z
M 2253 4666 
L 3047 4666 
L 3047 1625 
L 3713 1625 
L 3713 1100 
L 3047 1100 
L 3047 0 
L 2419 0 
L 2419 1100 
L 313 1100 
L 313 1709 
L 2253 4666 
z
" transform="scale(0.015625)"/>
       </defs>
       <use xlink:href="#DejaVuSans-34"/>
       <use xlink:href="#DejaVuSans-30" transform="translate(63.623047 0)"/>
      </g>
     </g>
    </g>
    <g id="ytick_3">
     <g id="line2d_13">
      <g>
       <use xlink:href="#m0046ed4166" x="145.8" y="105.773834" style="stroke: #000000; stroke-width: 0.8"/>
      </g>
     </g>
     <g id="text_13">
      <!-- 60 -->
      <g transform="translate(126.075 109.573053) scale(0.1 -0.1)">
       <use xlink:href="#DejaVuSans-36"/>
       <use xlink:href="#DejaVuSans-30" transform="translate(63.623047 0)"/>
      </g>
     </g>
    </g>
    <g id="ytick_4">
     <g id="line2d_14">
      <g>
       <use xlink:href="#m0046ed4166" x="145.8" y="64.794837" style="stroke: #000000; stroke-width: 0.8"/>
      </g>
     </g>
     <g id="text_14">
      <!-- 80 -->
      <g transform="translate(126.075 68.594056) scale(0.1 -0.1)">
       <defs>
        <path id="DejaVuSans-38" d="M 2034 2216 
Q 1584 2216 1326 1975 
Q 1069 1734 1069 1313 
Q 1069 891 1326 650 
Q 1584 409 2034 409 
Q 2484 409 2743 651 
Q 3003 894 3003 1313 
Q 3003 1734 2745 1975 
Q 2488 2216 2034 2216 
z
M 1403 2484 
Q 997 2584 770 2862 
Q 544 3141 544 3541 
Q 544 4100 942 4425 
Q 1341 4750 2034 4750 
Q 2731 4750 3128 4425 
Q 3525 4100 3525 3541 
Q 3525 3141 3298 2862 
Q 3072 2584 2669 2484 
Q 3125 2378 3379 2068 
Q 3634 1759 3634 1313 
Q 3634 634 3220 271 
Q 2806 -91 2034 -91 
Q 1263 -91 848 271 
Q 434 634 434 1313 
Q 434 1759 690 2068 
Q 947 2378 1403 2484 
z
M 1172 3481 
Q 1172 3119 1398 2916 
Q 1625 2713 2034 2713 
Q 2441 2713 2670 2916 
Q 2900 3119 2900 3481 
Q 2900 3844 2670 4047 
Q 2441 4250 2034 4250 
Q 1625 4250 1398 4047 
Q 1172 3844 1172 3481 
z
" transform="scale(0.015625)"/>
       </defs>
       <use xlink:href="#DejaVuSans-38"/>
       <use xlink:href="#DejaVuSans-30" transform="translate(63.623047 0)"/>
      </g>
     </g>
    </g>
   </g>
   <g id="line2d_15">
    <path d="M 186.889091 39.173515 
L 191.315205 39.238136 
L 192.790576 39.06 
L 194.265947 76.370511 
L 195.741319 77.690436 
L 197.21669 73.113329 
L 201.642804 77.364298 
L 203.118175 72.620518 
L 206.068918 71.326671 
L 207.544289 86.717298 
L 211.970403 109.088975 
L 213.445774 118.103193 
L 216.396517 133.277387 
L 217.871888 138.803455 
L 222.298002 134.474952 
L 223.773374 149.500239 
L 225.248745 156.127748 
L 228.199488 156.942842 
L 232.625601 167.634837 
L 234.100973 189.191634 
L 235.576344 172.757605 
L 237.051715 194.394905 
L 238.527087 191.051667 
L 244.428572 194.006664 
L 245.903943 187.284485 
L 247.379315 185.83518 
L 248.854686 179.786046 
L 253.2808 155.739917 
L 254.756171 139.126499 
L 256.231542 131.879353 
L 257.706914 136.090746 
L 259.182285 128.04012 
L 263.608399 138.264059 
L 265.08377 127.108008 
L 266.559142 136.515706 
L 268.034513 114.996383 
L 269.509884 131.17958 
L 273.935998 113.40171 
L 276.886741 98.535804 
L 278.362112 89.888025 
L 279.837483 95.230755 
L 285.738969 110.184068 
L 287.21434 111.673015 
L 288.689711 104.34115 
L 290.165082 100.106042 
L 294.591196 64.320808 
L 296.066568 71.791556 
L 297.541939 101.437563 
L 299.01731 113.897486 
L 300.492682 83.792299 
L 304.918795 98.5849 
L 306.394167 116.724672 
L 307.869538 129.939578 
L 309.344909 149.580949 
L 310.820281 146.562023 
L 315.246395 170.47429 
L 316.721766 180.238591 
L 318.197137 187.191168 
L 319.672509 192.440031 
L 321.14788 185.845581 
L 325.573994 184.382518 
L 327.049365 179.880121 
L 328.524736 169.425875 
L 330.000108 184.308474 
L 331.475479 167.308733 
L 335.901593 157.607951 
L 337.376964 149.655961 
L 338.852336 152.290136 
L 340.327707 155.738745 
L 341.803078 147.030311 
L 346.229192 123.316692 
L 347.704563 111.133794 
L 349.179935 85.197609 
L 350.655306 146.424015 
L 352.130677 165.649646 
L 356.556791 170.546166 
L 358.032163 181.975807 
L 359.507534 141.28136 
L 360.982905 152.610773 
L 362.458276 146.633739 
L 366.88439 145.190812 
L 368.359762 143.831711 
L 369.835133 151.810426 
L 371.310504 144.838465 
L 377.21199 152.077943 
L 378.687361 146.201825 
L 380.162732 142.117428 
L 381.638103 121.336866 
L 383.113475 103.441453 
L 387.539589 92.783493 
L 389.01496 76.458411 
L 390.490331 100.674917 
L 391.965703 76.389928 
L 393.441074 110.662143 
L 397.867188 133.795916 
L 399.342559 133.795916 
L 400.81793 121.627888 
L 402.293302 125.027847 
L 403.768673 112.339096 
L 408.194787 100.742042 
L 409.670158 105.631512 
L 411.14553 115.292671 
L 412.620901 119.924213 
L 414.096272 122.582318 
L 418.522386 131.745424 
L 419.997757 139.702136 
L 421.473129 151.291178 
L 422.9485 136.403363 
L 424.423871 135.507062 
L 430.325357 121.458925 
L 431.800728 114.852761 
L 433.276099 119.117923 
L 434.751471 119.458143 
L 439.177584 160.53819 
L 440.652956 163.467883 
L 442.128327 163.097945 
L 443.603698 166.19423 
L 445.07907 150.63032 
L 449.505184 150.60504 
L 450.980555 140.500626 
L 452.455926 137.848638 
L 453.931298 133.904452 
L 455.406669 121.544839 
L 459.832783 134.359604 
L 461.308154 145.680398 
L 462.783525 139.702306 
L 465.734268 125.73722 
L 470.160382 126.973324 
L 471.635753 136.943174 
L 473.111125 130.668912 
L 474.586496 124.893391 
L 476.061867 138.158222 
L 480.487981 111.650414 
L 481.963352 107.084735 
L 483.438724 76.708297 
L 484.914095 75.446807 
L 490.81558 79.821335 
L 492.290952 83.659563 
L 493.766323 65.70118 
L 495.241694 65.180556 
L 496.717065 81.743762 
L 501.143179 97.568309 
L 502.618551 89.737186 
L 504.093922 90.302218 
L 505.569293 87.888148 
L 507.044665 85.137835 
L 511.470779 92.785856 
L 512.94615 95.112563 
L 514.421521 116.119401 
L 515.896892 124.963413 
L 517.372264 95.458587 
L 521.798378 94.860534 
L 523.273749 125.365283 
L 524.74912 148.077192 
L 526.224492 149.235518 
L 527.699863 160.522172 
L 532.125977 157.093804 
L 533.601348 166.312862 
L 535.076719 114.737542 
L 538.027462 85.4537 
L 542.453576 94.718129 
L 543.928947 90.03233 
L 545.404319 83.804879 
L 546.87969 85.60625 
L 548.355061 89.276727 
L 552.781175 83.138552 
L 554.256546 77.071932 
L 555.731918 86.703071 
L 557.207289 73.639716 
L 558.68266 71.599386 
L 563.108774 72.177254 
L 566.059517 92.597378 
L 567.534888 112.239928 
L 569.01026 104.966622 
L 574.911745 125.96205 
L 576.387116 108.029942 
L 577.862487 102.068663 
L 579.337859 97.187372 
L 583.763973 102.111211 
L 585.239344 114.443584 
L 586.714715 124.034963 
L 588.190087 112.429233 
L 589.665458 109.759686 
L 594.091572 102.541237 
L 595.566943 103.90193 
L 597.042314 104.579939 
L 598.517686 112.359732 
L 599.993057 96.76549 
L 604.419171 76.767074 
L 605.894542 91.811913 
L 607.369913 99.669837 
L 608.845285 92.891215 
L 610.320656 91.853213 
L 614.74677 84.988357 
L 616.222141 59.122534 
L 617.697513 61.25541 
L 619.172884 63.599132 
L 620.648255 65.524116 
L 625.074369 73.267298 
L 626.54974 75.374064 
L 628.025112 68.320611 
L 629.500483 98.990878 
L 630.975854 162.849304 
L 635.401968 148.62936 
L 636.87734 142.301652 
L 638.352711 155.922338 
L 639.828082 157.241333 
L 641.303454 133.498996 
L 645.729567 106.797045 
L 647.204939 107.402265 
L 648.68031 123.073906 
L 650.155681 122.51531 
L 651.631053 112.166703 
L 656.057167 101.165477 
L 657.532538 103.362397 
L 659.007909 91.096033 
L 660.483281 56.822267 
L 661.958652 63.704 
L 666.384766 69.490272 
L 667.860137 70.190715 
L 669.335508 61.746609 
L 670.81088 69.521072 
L 672.286251 98.404299 
L 676.712365 96.219973 
L 678.187736 56.622644 
L 679.663108 69.96501 
L 681.138479 80.041776 
L 682.61385 103.757425 
L 687.039964 132.132687 
L 688.515335 135.720265 
L 689.990707 138.79099 
L 691.466078 143.943391 
L 692.941449 115.734756 
L 697.367563 105.091698 
L 698.842935 102.573884 
L 700.318306 99.584543 
L 703.269048 90.96412 
L 707.695162 84.96409 
L 709.170534 90.318062 
L 710.645905 91.462679 
L 712.121276 103.162754 
L 713.596648 108.009184 
L 718.022762 92.545179 
L 719.498133 95.446793 
L 720.973504 94.400547 
L 722.448875 87.706385 
L 723.924247 99.823987 
L 728.350361 133.381824 
L 729.825732 135.744756 
L 731.301103 147.38933 
L 732.776475 151.779446 
L 734.251846 166.567084 
L 738.67796 192.389359 
L 740.153331 178.939148 
L 741.628702 159.988377 
L 744.579445 154.644733 
L 749.005559 148.661773 
L 750.48093 148.534729 
L 751.956302 164.625676 
L 754.907044 164.970514 
L 759.333158 177.39402 
L 760.808529 179.036385 
L 762.283901 186.367998 
L 763.759272 183.626629 
L 765.234643 183.766751 
L 769.660757 188.082124 
L 771.136129 176.228014 
L 772.6115 189.654138 
L 774.086871 204.836635 
L 775.562243 207.233607 
L 781.463728 215.46 
L 782.939099 209.365119 
L 784.41447 204.386668 
L 785.889842 203.953059 
L 790.315956 162.064067 
L 791.791327 139.410862 
L 793.266698 138.846873 
L 794.74207 128.679898 
L 796.217441 125.922656 
L 800.643555 102.868646 
L 802.118926 105.928124 
L 803.594297 91.26729 
L 805.069669 87.861708 
L 806.54504 76.759687 
L 810.971154 56.135584 
L 812.446525 60.827226 
L 813.921897 59.84519 
L 815.397268 100.655407 
L 816.872639 125.114459 
L 822.774124 116.192625 
L 824.249496 111.909604 
L 825.724867 121.931113 
L 827.200238 117.561811 
L 831.626352 133.053157 
L 833.101724 121.242042 
L 834.577095 130.025826 
L 836.052466 131.278377 
L 837.527837 148.95564 
L 841.953951 143.436194 
L 843.429323 143.479438 
L 844.904694 148.994369 
L 846.380065 129.404849 
L 847.855437 122.337477 
L 852.281551 137.002082 
L 853.756922 135.59606 
L 855.232293 125.587959 
L 856.707664 151.40485 
L 858.183036 167.416455 
L 862.60915 180.165436 
L 864.084521 183.115463 
L 865.559892 186.629952 
L 867.035264 176.143374 
L 868.510635 180.348035 
L 872.936749 162.967169 
L 874.41212 159.897238 
L 877.362863 142.225899 
L 878.838234 162.880024 
L 883.264348 171.413974 
L 884.739719 144.53522 
L 886.215091 126.631711 
L 887.690462 106.97127 
L 893.591947 106.328404 
L 895.067318 128.400697 
L 896.54269 100.835936 
L 898.018061 94.086305 
L 899.493432 90.471128 
L 903.919546 102.706131 
L 905.394918 104.438244 
L 906.870289 91.217486 
L 908.34566 101.298766 
L 909.821031 78.400871 
L 914.247145 68.080555 
L 915.722517 98.83459 
L 917.197888 91.303525 
L 918.673259 91.342972 
L 920.148631 101.659746 
L 924.574745 96.696302 
L 926.050116 100.294129 
L 927.525487 104.487002 
L 929.000858 102.422485 
L 930.47623 86.697693 
L 934.902344 94.002058 
L 936.377715 94.310362 
L 937.853086 83.088871 
L 939.328458 91.31545 
L 940.803829 87.455402 
L 945.229943 67.891432 
L 946.705314 72.995682 
L 948.180685 68.912599 
L 949.656057 62.736277 
L 951.131428 47.518341 
L 955.557542 59.562053 
L 957.032913 56.474826 
L 958.508285 54.941225 
L 959.983656 59.800342 
L 961.459027 42.04617 
L 967.360512 49.007203 
L 968.835884 49.651192 
L 970.311255 47.979897 
L 971.786626 56.031981 
L 976.21274 84.090113 
L 977.688112 73.857999 
L 979.163483 97.628365 
L 980.638854 93.777593 
L 982.114226 109.296218 
L 986.540339 118.083439 
L 988.015711 141.612224 
L 989.491082 146.524946 
L 990.966453 143.615934 
L 992.441825 158.666206 
L 996.867939 146.354636 
L 998.34331 145.752369 
L 999.818681 153.338489 
L 1001.294053 148.65925 
L 1007.195538 142.270727 
L 1008.670909 166.404953 
L 1008.670909 166.404953 
" clip-path="url(#p8b2c865601)" style="fill: none; stroke: #1f77b4; stroke-width: 1.5; stroke-linecap: square"/>
   </g>
   <g id="patch_3">
    <path d="M 145.8 224.28 
L 145.8 30.24 
" style="fill: none; stroke: #000000; stroke-width: 0.8; stroke-linejoin: miter; stroke-linecap: square"/>
   </g>
   <g id="patch_4">
    <path d="M 145.8 224.28 
L 1049.76 224.28 
" style="fill: none; stroke: #000000; stroke-width: 0.8; stroke-linejoin: miter; stroke-linecap: square"/>
   </g>
  </g>
 </g>
 <defs>
  <clipPath id="p8b2c865601">
   <rect x="145.8" y="30.24" width="903.96" height="194.04"/>
  </clipPath>
 </defs>
</svg>
