<?xml version="1.0" encoding="utf-8" standalone="no"?>
<!DOCTYPE svg PUBLIC "-//W3C//DTD SVG 1.1//EN"
  "http://www.w3.org/Graphics/SVG/1.1/DTD/svg11.dtd">
<svg xmlns:xlink="http://www.w3.org/1999/xlink" width="756pt" height="252pt" viewBox="0 0 756 252" xmlns="http://www.w3.org/2000/svg" version="1.1">
 <metadata>
  <rdf:RDF xmlns:dc="http://purl.org/dc/elements/1.1/" xmlns:cc="http://creativecommons.org/ns#" xmlns:rdf="http://www.w3.org/1999/02/22-rdf-syntax-ns#">
   <cc:Work>
    <dc:type rdf:resource="http://purl.org/dc/dcmitype/StillImage"/>
    <dc:date>2026-06-26T14:36:53.002190</dc:date>
    <dc:format>image/svg+xml</dc:format>
    <dc:creator>
     <cc:Agent>
      <dc:title>Matplotlib v3.10.9, https://matplotlib.org/</dc:title>
     </cc:Agent>
    </dc:creator>
   </cc:Work>
  </rdf:RDF>
 </metadata>
 <defs>
  <style type="text/css">*{stroke-linejoin: round; stroke-linecap: butt}</style>
 </defs>
 <g id="figure_1">
  <g id="patch_1">
   <path d="M 0 252 
L 756 252 
L 756 0 
L 0 0 
z
" style="fill: #ffffff"/>
  </g>
  <g id="axes_1">
   <g id="patch_2">
    <path d="M 94.5 224.28 
L 680.4 224.28 
L 680.4 30.24 
L 94.5 30.24 
z
" style="fill: #ffffff"/>
   </g>
   <g id="matplotlib.axis_1">
    <g id="xtick_1">
     <g id="line2d_1">
      <defs>
       <path id="m505fc12fc6" d="M 0 0 
L 0 3.5 
" style="stroke: #000000; stroke-width: 0.8"/>
      </defs>
      <g>
       <use xlink:href="#m505fc12fc6" x="116.359905" y="224.28" style="stroke: #000000; stroke-width: 0.8"/>
      </g>
     </g>
     <g id="text_1">
      <!-- 2020 -->
      <g transform="translate(103.634905 238.878438) scale(0.1 -0.1)">
       <defs>
        <path id="DejaVuSans-32" d="M 1228 531 
L 3431 531 
L 3431 0 
L 469 0 
L 469 531 
Q 828 903 1448 1529 
Q 2069 2156 2228 2338 
Q 2531 2678 2651 2914 
Q 2772 3150 2772 3378 
Q 2772 3750 2511 3984 
Q 2250 4219 1831 4219 
Q 1534 4219 1204 4116 
Q 875 4013 500 3803 
L 500 4441 
Q 881 4594 1212 4672 
Q 1544 4750 1819 4750 
Q 2544 4750 2975 4387 
Q 3406 4025 3406 3419 
Q 3406 3131 3298 2873 
Q 3191 2616 2906 2266 
Q 2828 2175 2409 1742 
Q 1991 1309 1228 531 
z
" transform="scale(0.015625)"/>
        <path id="DejaVuSans-30" d="M 2034 4250 
Q 1547 4250 1301 3770 
Q 1056 3291 1056 2328 
Q 1056 1369 1301 889 
Q 1547 409 2034 409 
Q 2525 409 2770 889 
Q 3016 1369 3016 2328 
Q 3016 3291 2770 3770 
Q 2525 4250 2034 4250 
z
M 2034 4750 
Q 2819 4750 3233 4129 
Q 3647 3509 3647 2328 
Q 3647 1150 3233 529 
Q 2819 -91 2034 -91 
Q 1250 -91 836 529 
Q 422 1150 422 2328 
Q 422 3509 836 4129 
Q 1250 4750 2034 4750 
z
" transform="scale(0.015625)"/>
       </defs>
       <use xlink:href="#DejaVuSans-32"/>
       <use xlink:href="#DejaVuSans-30" transform="translate(63.623047 0)"/>
       <use xlink:href="#DejaVuSans-32" transform="translate(127.246094 0)"/>
       <use xlink:href="#DejaVuSans-30" transform="translate(190.869141 0)"/>
      </g>
     </g>
    </g>
    <g id="xtick_2">
     <g id="line2d_2">
      <g>
       <use xlink:href="#m505fc12fc6" x="199.527529" y="224.28" style="stroke: #000000; stroke-width: 0.8"/>
      </g>
     </g>
     <g id="text_2">
      <!-- 2021 -->
      <g transform="translate(186.802529 238.878438) scale(0.1 -0.1)">
       <defs>
        <path id="DejaVuSans-31" d="M 794 531 
L 1825 531 
L 1825 4091 
L 703 3866 
L 703 4441 
L 1819 4666 
L 2450 4666 
L 2450 531 
L 3481 531 
L 3481 0 
L 794 0 
L 794 531 
z
" transform="scale(0.015625)"/>
       </defs>
       <use xlink:href="#DejaVuSans-32"/>
       <use xlink:href="#DejaVuSans-30" transform="translate(63.623047 0)"/>
       <use xlink:href="#DejaVuSans-32" transform="translate(127.246094 0)"/>
       <use xlink:href="#DejaVuSans-31" transform="translate(190.869141 0)"/>
      </g>
     </g>
    </g>
    <g id="xtick_3">
     <g id="line2d_3">
      <g>
       <use xlink:href="#m505fc12fc6" x="282.467918" y="224.28" style="stroke: #000000; stroke-width: 0.8"/>
      </g>
     </g>
     <g id="text_3">
      <!-- 2022 -->
      <g transform="translate(269.742918 238.878438) scale(0.1 -0.1)">
       <use xlink:href="#DejaVuSans-32"/>
       <use xlink:href="#DejaVuSans-30" transform="translate(63.623047 0)"/>
       <use xlink:href="#DejaVuSans-32" transform="translate(127.246094 0)"/>
       <use xlink:href="#DejaVuSans-32" transform="translate(190.869141 0)"/>
      </g>
     </g>
    </g>
    <g id="xtick_4">
     <g id="line2d_4">
      <g>
       <use xlink:href="#m505fc12fc6" x="365.408307" y="224.28" style="stroke: #000000; stroke-width: 0.8"/>
      </g>
     </g>
     <g id="text_4">
      <!-- 2023 -->
      <g transform="translate(352.683307 238.878438) scale(0.1 -0.1)">
       <defs>
        <path id="DejaVuSans-33" d="M 2597 2516 
Q 3050 2419 3304 2112 
Q 3559 1806 3559 1356 
Q 3559 666 3084 287 
Q 2609 -91 1734 -91 
Q 1441 -91 1130 -33 
Q 819 25 488 141 
L 488 750 
Q 750 597 1062 519 
Q 1375 441 1716 441 
Q 2309 441 2620 675 
Q 2931 909 2931 1356 
Q 2931 1769 2642 2001 
Q 2353 2234 1838 2234 
L 1294 2234 
L 1294 2753 
L 1863 2753 
Q 2328 2753 2575 2939 
Q 2822 3125 2822 3475 
Q 2822 3834 2567 4026 
Q 2313 4219 1838 4219 
Q 1578 4219 1281 4162 
Q 984 4106 628 3988 
L 628 4550 
Q 988 4650 1302 4700 
Q 1616 4750 1894 4750 
Q 2613 4750 3031 4423 
Q 3450 4097 3450 3541 
Q 3450 3153 3228 2886 
Q 3006 2619 2597 2516 
z
" transform="scale(0.015625)"/>
       </defs>
       <use xlink:href="#DejaVuSans-32"/>
       <use xlink:href="#DejaVuSans-30" transform="translate(63.623047 0)"/>
       <use xlink:href="#DejaVuSans-32" transform="translate(127.246094 0)"/>
       <use xlink:href="#DejaVuSans-33" transform="translate(190.869141 0)"/>
      </g>
     </g>
    </g>
    <g id="xtick_5">
     <g id="line2d_5">
      <g>
       <use xlink:href="#m505fc12fc6" x="448.348697" y="224.28" style="stroke: #000000; stroke-width: 0.8"/>
      </g>
     </g>
     <g id="text_5">
      <!-- 2024 -->
      <g transform="translate(435.623697 238.878438) scale(0.1 -0.1)">
       <defs>
        <path id="DejaVuSans-34" d="M 2419 4116 
L 825 1625 
L 2419 1625 
L 2419 4116 
z
M 2253 4666 
L 3047 4666 
L 3047 1625 
L 3713 1625 
L 3713 1100 
L 3047 1100 
L 3047 0 
L 2419 0 
L 2419 1100 
L 313 1100 
L 313 1709 
L 2253 4666 
z
" transform="scale(0.015625)"/>
       </defs>
       <use xlink:href="#DejaVuSans-32"/>
       <use xlink:href="#DejaVuSans-30" transform="translate(63.623047 0)"/>
       <use xlink:href="#DejaVuSans-32" transform="translate(127.246094 0)"/>
       <use xlink:href="#DejaVuSans-34" transform="translate(190.869141 0)"/>
      </g>
     </g>
    </g>
    <g id="xtick_6">
     <g id="line2d_6">
      <g>
       <use xlink:href="#m505fc12fc6" x="531.51632" y="224.28" style="stroke: #000000; stroke-width: 0.8"/>
      </g>
     </g>
     <g id="text_6">
      <!-- 2025 -->
      <g transform="translate(518.79132 238.878438) scale(0.1 -0.1)">
       <defs>
        <path id="DejaVuSans-35" d="M 691 4666 
L 3169 4666 
L 3169 4134 
L 1269 4134 
L 1269 2991 
Q 1406 3038 1543 3061 
Q 1681 3084 1819 3084 
Q 2600 3084 3056 2656 
Q 3513 2228 3513 1497 
Q 3513 744 3044 326 
Q 2575 -91 1722 -91 
Q 1428 -91 1123 -41 
Q 819 9 494 109 
L 494 744 
Q 775 591 1075 516 
Q 1375 441 1709 441 
Q 2250 441 2565 725 
Q 2881 1009 2881 1497 
Q 2881 1984 2565 2268 
Q 2250 2553 1709 2553 
Q 1456 2553 1204 2497 
Q 953 2441 691 2322 
L 691 4666 
z
" transform="scale(0.015625)"/>
       </defs>
       <use xlink:href="#DejaVuSans-32"/>
       <use xlink:href="#DejaVuSans-30" transform="translate(63.623047 0)"/>
       <use xlink:href="#DejaVuSans-32" transform="translate(127.246094 0)"/>
       <use xlink:href="#DejaVuSans-35" transform="translate(190.869141 0)"/>
      </g>
     </g>
    </g>
    <g id="xtick_7">
     <g id="line2d_7">
      <g>
       <use xlink:href="#m505fc12fc6" x="614.45671" y="224.28" style="stroke: #000000; stroke-width: 0.8"/>
      </g>
     </g>
     <g id="text_7">
      <!-- 2026 -->
      <g transform="translate(601.73171 238.878438) scale(0.1 -0.1)">
       <defs>
        <path id="DejaVuSans-36" d="M 2113 2584 
Q 1688 2584 1439 2293 
Q 1191 2003 1191 1497 
Q 1191 994 1439 701 
Q 1688 409 2113 409 
Q 2538 409 2786 701 
Q 3034 994 3034 1497 
Q 3034 2003 2786 2293 
Q 2538 2584 2113 2584 
z
M 3366 4563 
L 3366 3988 
Q 3128 4100 2886 4159 
Q 2644 4219 2406 4219 
Q 1781 4219 1451 3797 
Q 1122 3375 1075 2522 
Q 1259 2794 1537 2939 
Q 1816 3084 2150 3084 
Q 2853 3084 3261 2657 
Q 3669 2231 3669 1497 
Q 3669 778 3244 343 
Q 2819 -91 2113 -91 
Q 1303 -91 875 529 
Q 447 1150 447 2328 
Q 447 3434 972 4092 
Q 1497 4750 2381 4750 
Q 2619 4750 2861 4703 
Q 3103 4656 3366 4563 
z
" transform="scale(0.015625)"/>
       </defs>
       <use xlink:href="#DejaVuSans-32"/>
       <use xlink:href="#DejaVuSans-30" transform="translate(63.623047 0)"/>
       <use xlink:href="#DejaVuSans-32" transform="translate(127.246094 0)"/>
       <use xlink:href="#DejaVuSans-36" transform="translate(190.869141 0)"/>
      </g>
     </g>
    </g>
   </g>
   <g id="matplotlib.axis_2">
    <g id="ytick_1">
     <g id="line2d_8">
      <defs>
       <path id="m9a0537272c" d="M 0 0 
L -3.5 0 
" style="stroke: #000000; stroke-width: 0.8"/>
      </defs>
      <g>
       <use xlink:href="#m9a0537272c" x="94.5" y="218.273703" style="stroke: #000000; stroke-width: 0.8"/>
      </g>
     </g>
     <g id="text_8">
      <!-- 50 -->
      <g transform="translate(74.775 222.072922) scale(0.1 -0.1)">
       <use xlink:href="#DejaVuSans-35"/>
       <use xlink:href="#DejaVuSans-30" transform="translate(63.623047 0)"/>
      </g>
     </g>
    </g>
    <g id="ytick_2">
     <g id="line2d_9">
      <g>
       <use xlink:href="#m9a0537272c" x="94.5" y="184.485299" style="stroke: #000000; stroke-width: 0.8"/>
      </g>
     </g>
     <g id="text_9">
      <!-- 100 -->
      <g transform="translate(68.4125 188.284518) scale(0.1 -0.1)">
       <use xlink:href="#DejaVuSans-31"/>
       <use xlink:href="#DejaVuSans-30" transform="translate(63.623047 0)"/>
       <use xlink:href="#DejaVuSans-30" transform="translate(127.246094 0)"/>
      </g>
     </g>
    </g>
    <g id="ytick_3">
     <g id="line2d_10">
      <g>
       <use xlink:href="#m9a0537272c" x="94.5" y="150.696895" style="stroke: #000000; stroke-width: 0.8"/>
      </g>
     </g>
     <g id="text_10">
      <!-- 150 -->
      <g transform="translate(68.4125 154.496114) scale(0.1 -0.1)">
       <use xlink:href="#DejaVuSans-31"/>
       <use xlink:href="#DejaVuSans-35" transform="translate(63.623047 0)"/>
       <use xlink:href="#DejaVuSans-30" transform="translate(127.246094 0)"/>
      </g>
     </g>
    </g>
    <g id="ytick_4">
     <g id="line2d_11">
      <g>
       <use xlink:href="#m9a0537272c" x="94.5" y="116.908491" style="stroke: #000000; stroke-width: 0.8"/>
      </g>
     </g>
     <g id="text_11">
      <!-- 200 -->
      <g transform="translate(68.4125 120.70771) scale(0.1 -0.1)">
       <use xlink:href="#DejaVuSans-32"/>
       <use xlink:href="#DejaVuSans-30" transform="translate(63.623047 0)"/>
       <use xlink:href="#DejaVuSans-30" transform="translate(127.246094 0)"/>
      </g>
     </g>
    </g>
    <g id="ytick_5">
     <g id="line2d_12">
      <g>
       <use xlink:href="#m9a0537272c" x="94.5" y="83.120087" style="stroke: #000000; stroke-width: 0.8"/>
      </g>
     </g>
     <g id="text_12">
      <!-- 250 -->
      <g transform="translate(68.4125 86.919306) scale(0.1 -0.1)">
       <use xlink:href="#DejaVuSans-32"/>
       <use xlink:href="#DejaVuSans-35" transform="translate(63.623047 0)"/>
       <use xlink:href="#DejaVuSans-30" transform="translate(127.246094 0)"/>
      </g>
     </g>
    </g>
    <g id="ytick_6">
     <g id="line2d_13">
      <g>
       <use xlink:href="#m9a0537272c" x="94.5" y="49.331683" style="stroke: #000000; stroke-width: 0.8"/>
      </g>
     </g>
     <g id="text_13">
      <!-- 300 -->
      <g transform="translate(68.4125 53.130902) scale(0.1 -0.1)">
       <use xlink:href="#DejaVuSans-33"/>
       <use xlink:href="#DejaVuSans-30" transform="translate(63.623047 0)"/>
       <use xlink:href="#DejaVuSans-30" transform="translate(127.246094 0)"/>
      </g>
     </g>
    </g>
   </g>
   <g id="line2d_14">
    <path d="M 121.131818 200.357528 
L 121.359052 200.108528 
L 121.586286 200.258245 
L 122.267988 201.781558 
L 122.722456 199.276893 
L 122.94969 199.353388 
L 123.176924 201.690421 
L 123.858626 201.828769 
L 124.085859 200.17036 
L 124.540327 199.135312 
L 124.767561 199.854734 
L 125.449263 199.606765 
L 125.676497 199.923237 
L 125.903731 198.685054 
L 126.130965 199.065164 
L 126.358199 199.052094 
L 127.267135 200.022748 
L 127.494369 199.269087 
L 127.721603 199.810673 
L 127.948836 200.993391 
L 128.630538 203.419174 
L 128.857772 205.066813 
L 129.085006 204.321308 
L 129.31224 207.442034 
L 129.539474 207.468132 
L 130.221176 203.316406 
L 130.44841 204.864523 
L 130.675644 202.675284 
L 130.902878 204.277253 
L 131.130112 204.911832 
L 131.811814 208.641044 
L 132.039047 205.513807 
L 132.266281 207.130454 
L 132.493515 211.567654 
L 132.720749 206.716096 
L 133.402451 212.549712 
L 133.629685 210.812349 
L 133.856919 211.822145 
L 134.084153 212.130464 
L 134.311387 214.665548 
L 134.993089 215.46 
L 135.220323 211.787893 
L 135.447557 212.009753 
L 135.674791 209.902074 
L 135.902025 211.647591 
L 136.583726 210.494245 
L 136.81096 210.579074 
L 137.038194 212.761787 
L 137.265428 212.106 
L 137.492662 212.680221 
L 138.174364 209.24465 
L 138.401598 209.740574 
L 138.628832 208.657377 
L 138.856066 208.344158 
L 139.765002 207.486079 
L 139.992235 205.234852 
L 140.219469 205.662244 
L 140.446703 205.29356 
L 140.673937 205.92815 
L 141.355639 206.885744 
L 141.582873 208.282166 
L 141.810107 207.021143 
L 142.037341 207.195705 
L 142.264575 205.900417 
L 142.946277 205.867792 
L 143.173511 206.61657 
L 143.627979 204.133692 
L 143.855213 204.90531 
L 144.536914 204.238106 
L 144.991382 203.019499 
L 145.218616 202.512152 
L 145.44585 201.33278 
L 146.127552 200.534544 
L 146.58202 201.738446 
L 146.809254 201.42929 
L 147.036488 201.72863 
L 147.71819 200.542721 
L 147.945424 200.840416 
L 148.172657 199.844252 
L 148.399891 200.233549 
L 148.627125 199.899882 
L 149.536061 200.253192 
L 149.763295 200.02747 
L 150.217763 200.055275 
L 151.353933 198.880806 
L 151.581167 199.338803 
L 151.808401 197.837205 
L 152.490102 197.516608 
L 152.94457 194.346527 
L 153.171804 197.117479 
L 153.399038 196.643113 
L 154.08074 195.957719 
L 154.307974 194.470841 
L 154.762442 194.528085 
L 154.989676 194.856884 
L 155.671378 193.360174 
L 155.898612 192.107189 
L 156.125845 193.165526 
L 156.353079 192.383633 
L 156.580313 194.217294 
L 157.489249 192.39016 
L 157.943717 192.503049 
L 158.852653 190.909814 
L 159.079887 191.099564 
L 159.307121 189.679735 
L 159.761589 189.301884 
L 160.44329 189.591398 
L 160.670524 188.557618 
L 160.897758 188.120873 
L 161.124992 188.907679 
L 161.352226 189.035273 
L 162.033928 187.707045 
L 162.261162 188.595254 
L 162.488396 188.416949 
L 162.71563 191.313861 
L 162.942864 191.464345 
L 163.624566 190.028168 
L 163.8518 191.047218 
L 164.306267 189.125224 
L 164.533501 182.536449 
L 165.442437 180.308563 
L 165.669671 180.048478 
L 165.896905 177.535981 
L 166.124139 179.230392 
L 166.805841 178.171787 
L 167.033075 180.369297 
L 167.487543 176.675665 
L 168.396478 176.939503 
L 168.623712 176.313533 
L 168.850946 176.218483 
L 169.07818 174.535538 
L 169.305414 170.540406 
L 169.987116 169.56538 
L 170.21435 170.242174 
L 170.441584 169.129492 
L 170.668818 170.120881 
L 170.896052 170.25363 
L 171.577754 167.479332 
L 171.804988 164.110184 
L 172.032222 165.932395 
L 172.259455 172.828016 
L 172.486689 172.775578 
L 173.395625 178.111167 
L 173.622859 175.161502 
L 173.850093 177.671994 
L 174.077327 178.648654 
L 174.759029 176.446257 
L 174.986263 176.328274 
L 175.667965 182.030912 
L 176.349666 179.907186 
L 176.5769 178.77321 
L 176.804134 181.84739 
L 177.031368 181.12636 
L 177.258602 178.465131 
L 177.940304 176.708445 
L 178.167538 177.278732 
L 178.622006 175.508909 
L 178.84924 177.980073 
L 179.530942 175.69901 
L 179.758176 177.888311 
L 179.98541 176.629789 
L 180.212643 176.701892 
L 180.439877 175.390941 
L 181.121579 170.520742 
L 181.348813 172.683817 
L 181.576047 172.62483 
L 181.803281 172.939447 
L 182.030515 174.047211 
L 182.712217 176.039864 
L 182.939451 175.036971 
L 183.166685 175.456486 
L 183.621153 176.656006 
L 184.302854 176.649458 
L 184.530088 175.63346 
L 184.757322 179.173035 
L 184.984556 176.472478 
L 185.21179 180.706851 
L 185.893492 180.765847 
L 186.120726 179.671204 
L 186.575194 174.040642 
L 186.802428 174.129284 
L 187.48413 175.68545 
L 187.711364 175.915266 
L 187.938598 173.604001 
L 188.165832 173.787869 
L 188.393065 173.755027 
L 189.074767 173.072154 
L 189.529235 174.562647 
L 189.756469 174.162121 
L 190.665405 177.307264 
L 191.119873 175.875887 
L 191.574341 175.508172 
L 192.256043 173.892921 
L 192.483276 171.483152 
L 192.71051 171.246783 
L 192.937744 171.338704 
L 193.164978 171.791777 
L 194.073914 170.393185 
L 194.301148 172.100372 
L 194.528382 171.141741 
L 194.755616 171.686709 
L 195.437318 172.100372 
L 195.664552 168.095067 
L 195.891786 168.141035 
L 196.11902 167.556657 
L 196.346253 168.896129 
L 197.027955 167.865252 
L 197.255189 165.468619 
L 197.482423 166.072712 
L 197.709657 165.409524 
L 198.618593 162.310339 
L 199.073061 164.260473 
L 199.300295 164.936788 
L 200.209231 167.090448 
L 200.436464 166.039901 
L 200.663698 168.935513 
L 200.890932 166.09897 
L 201.118166 165.356988 
L 201.799868 167.372795 
L 202.027102 167.490974 
L 202.254336 166.118665 
L 202.708804 168.580961 
L 203.61774 168.127899 
L 204.299442 160.747595 
L 204.981143 158.219672 
L 205.208377 158.062083 
L 205.435611 158.784365 
L 205.890079 165.416093 
L 206.799015 163.426569 
L 207.026249 164.116 
L 207.253483 161.850739 
L 207.480717 162.130209 
L 208.162419 162.03156 
L 208.616886 163.031086 
L 208.84412 163.202069 
L 209.071354 163.044274 
L 209.98029 164.477796 
L 210.207524 166.023125 
L 210.434758 166.766201 
L 210.661992 166.660983 
L 211.343694 169.205863 
L 211.570928 169.297913 
L 211.798162 169.633307 
L 212.025396 172.500392 
L 212.25263 172.322845 
L 212.934331 168.02877 
L 213.616033 173.065916 
L 213.843267 172.217617 
L 214.524969 175.545025 
L 214.752203 172.434621 
L 214.979437 173.164544 
L 215.206671 171.862513 
L 215.433905 172.474088 
L 216.115607 170.52762 
L 216.342841 169.488638 
L 216.570074 170.021268 
L 216.797308 172.802872 
L 217.024542 173.157976 
L 217.706244 170.92217 
L 217.933478 171.48112 
L 218.160712 173.09222 
L 218.61518 172.355718 
L 219.296882 172.237359 
L 219.524116 173.217148 
L 219.75135 171.73758 
L 219.978584 171.178625 
L 220.887519 169.271608 
L 221.114753 169.067778 
L 221.569221 166.338777 
L 221.796455 164.602719 
L 222.478157 165.760086 
L 222.705391 163.662422 
L 222.932625 165.240603 
L 223.159859 163.616351 
L 223.387093 163.839922 
L 224.068795 163.392758 
L 224.296029 164.530405 
L 224.523262 164.27394 
L 224.750496 165.29979 
L 224.97773 163.734726 
L 225.659432 163.471671 
L 225.886666 163.688675 
L 226.1139 164.22131 
L 226.341134 164.287107 
L 226.568368 165.615412 
L 227.25007 164.905214 
L 227.477304 167.989329 
L 227.704538 167.824913 
L 227.931772 166.746465 
L 228.159006 166.291953 
L 229.067941 169.124403 
L 229.295175 171.192752 
L 229.749643 168.110003 
L 230.431345 168.887261 
L 230.658579 169.822634 
L 230.885813 169.928037 
L 231.113047 168.202223 
L 231.340281 169.440592 
L 232.021983 168.340556 
L 232.476451 168.505229 
L 232.703684 169.539385 
L 232.930918 169.980729 
L 233.839854 170.198103 
L 234.067088 169.684307 
L 234.294322 170.685544 
L 234.521556 169.137581 
L 235.203258 169.130982 
L 235.430492 168.577677 
L 235.657726 168.320784 
L 235.88496 168.992649 
L 236.793895 166.114107 
L 237.021129 166.667422 
L 237.248363 166.331477 
L 237.475597 165.251223 
L 237.702831 166.12728 
L 238.384533 164.915257 
L 238.611767 163.808658 
L 239.293469 164.381725 
L 239.975171 163.281673 
L 240.202405 162.260711 
L 240.656872 161.641511 
L 240.884106 159.869568 
L 241.793042 158.512639 
L 242.020276 156.832933 
L 242.24751 157.70902 
L 242.474744 156.477261 
L 243.156446 156.879045 
L 243.38368 156.128148 
L 243.610914 153.816074 
L 243.838148 154.257412 
L 244.065382 155.634129 
L 244.747083 158.229416 
L 244.974317 155.792192 
L 245.201551 156.286222 
L 245.656019 154.204711 
L 246.337721 153.921477 
L 246.792189 156.562898 
L 247.019423 156.128148 
L 247.246657 155.983211 
L 247.928359 156.207164 
L 248.155593 154.995172 
L 248.382827 155.265228 
L 248.610061 155.19277 
L 248.837294 155.654566 
L 249.518996 155.687552 
L 249.74623 156.010794 
L 249.973464 155.839274 
L 250.200698 153.840409 
L 250.427932 153.701855 
L 251.109634 152.369302 
L 251.336868 152.982789 
L 251.564102 155.509423 
L 251.791336 155.285129 
L 252.01857 154.302164 
L 252.700271 153.299431 
L 252.927505 153.358835 
L 253.381973 154.730963 
L 253.609207 154.031716 
L 254.290909 151.049906 
L 254.518143 151.900875 
L 254.745377 151.452319 
L 255.199845 150.271478 
L 256.108781 148.694771 
L 256.563249 150.423189 
L 256.790482 153.787604 
L 257.472184 153.40501 
L 257.699418 154.348349 
L 257.926652 153.74807 
L 258.153886 153.90635 
L 258.38112 155.70734 
L 259.062822 157.765568 
L 259.290056 157.442347 
L 259.51729 155.845874 
L 259.744524 155.199359 
L 259.971758 155.139986 
L 260.65346 156.162516 
L 260.880693 158.445079 
L 261.107927 157.838129 
L 261.335161 158.715547 
L 261.562395 157.956906 
L 262.244097 160.272414 
L 262.471331 158.972817 
L 262.925799 157.534685 
L 263.153033 157.791965 
L 263.834735 157.851318 
L 264.061969 158.708927 
L 264.289203 159.10473 
L 264.516437 157.224621 
L 264.74367 156.512155 
L 265.425372 155.384088 
L 265.652606 153.926158 
L 266.107074 153.451184 
L 266.334308 153.972323 
L 267.01601 154.005309 
L 267.243244 153.556701 
L 267.470478 153.866765 
L 267.697712 151.412713 
L 267.924946 153.2401 
L 268.606648 153.794224 
L 269.061115 152.1252 
L 269.288349 152.474818 
L 269.515583 152.118075 
L 270.197285 152.673034 
L 270.424519 152.428592 
L 270.651753 154.337882 
L 270.878987 154.37091 
L 271.106221 152.970333 
L 271.787923 152.963733 
L 272.015157 152.303072 
L 272.242391 150.658011 
L 272.696859 145.993792 
L 273.37856 145.683295 
L 273.833028 145.075469 
L 274.287496 148.464631 
L 274.969198 146.198608 
L 275.196432 142.855692 
L 275.423666 143.205826 
L 275.6509 143.873098 
L 275.878134 145.141555 
L 276.559836 142.842463 
L 277.014303 136.394454 
L 277.241537 136.73802 
L 277.468771 133.507385 
L 278.377707 136.889948 
L 278.604941 133.606478 
L 278.832175 138.257528 
L 279.059409 138.997454 
L 279.741111 139.915736 
L 280.195579 136.024522 
L 280.422813 135.601693 
L 281.331748 132.926028 
L 281.558982 133.613087 
L 281.786216 133.553632 
L 282.240684 134.749404 
L 282.922386 131.816129 
L 283.14962 133.342238 
L 283.604088 138.429306 
L 283.831322 138.316994 
L 284.513024 138.303765 
L 284.740258 136.394454 
L 284.967491 136.097187 
L 285.194725 138.303765 
L 285.421959 137.722356 
L 286.330895 139.88274 
L 286.558129 142.241267 
L 287.012597 144.765003 
L 287.694299 145.286904 
L 287.921533 146.502505 
L 288.148767 146.561971 
L 288.376001 146.872499 
L 288.603235 139.532585 
L 289.284936 136.59267 
L 289.51217 136.704961 
L 289.739404 135.892381 
L 289.966638 137.834699 
L 290.875574 138.509415 
L 291.102808 136.412458 
L 291.330042 135.453312 
L 291.78451 140.507136 
L 292.466212 140.348372 
L 292.693446 137.761952 
L 292.920679 137.920686 
L 293.147913 140.348372 
L 293.375147 141.393556 
L 294.284083 143.364797 
L 294.511317 146.17618 
L 294.965785 143.014209 
L 295.647487 142.835595 
L 295.874721 144.105702 
L 296.101955 141.883059 
L 296.329189 142.101331 
L 296.556423 144.125541 
L 297.465358 147.915931 
L 297.692592 144.271077 
L 298.14706 149.708578 
L 298.828762 152.427345 
L 299.28323 146.49371 
L 299.510464 145.812363 
L 299.737698 143.589709 
L 300.4194 142.663622 
L 300.646634 140.38807 
L 300.873868 139.468572 
L 301.101101 136.91519 
L 301.328335 136.485246 
L 302.010037 135.903116 
L 302.237271 133.680493 
L 302.464505 134.467655 
L 302.691739 136.557982 
L 302.918973 136.756446 
L 303.600675 134.02444 
L 304.055143 138.396939 
L 304.282377 138.191886 
L 304.509611 139.54798 
L 305.191312 142.41887 
L 305.64578 139.342907 
L 305.873014 142.723149 
L 306.78195 142.868685 
L 307.009184 141.327408 
L 307.236418 141.439864 
L 307.463652 141.975655 
L 307.690886 145.0384 
L 308.372588 144.317375 
L 308.599822 148.339276 
L 308.827056 148.49141 
L 309.054289 143.814632 
L 309.281523 147.776984 
L 309.963225 147.571942 
L 310.190459 146.566457 
L 310.417693 142.240267 
L 310.644927 148.359115 
L 310.872161 147.86889 
L 311.553863 151.326984 
L 311.781097 149.703969 
L 312.008331 155.01032 
L 312.235565 157.620456 
L 312.462799 154.606195 
L 313.1445 155.646286 
L 313.371734 153.195162 
L 313.598968 158.773147 
L 313.826202 161.071919 
L 314.053436 160.912948 
L 314.735138 157.256082 
L 314.962372 159.07789 
L 315.189606 158.971899 
L 315.41684 156.812248 
L 315.644074 152.930159 
L 316.780244 153.546255 
L 317.007478 151.890069 
L 317.234711 155.752287 
L 317.916413 155.248833 
L 318.143647 153.546255 
L 318.370881 154.0431 
L 318.825349 161.21765 
L 319.507051 164.695624 
L 319.734285 164.112669 
L 319.961519 162.343851 
L 320.188753 165.901326 
L 320.415987 164.907617 
L 321.324922 162.052369 
L 321.552156 162.396842 
L 322.006624 158.216651 
L 322.688326 158.216651 
L 322.91556 161.012299 
L 323.142794 159.826477 
L 323.370028 161.489294 
L 323.597262 160.025229 
L 324.506198 158.282922 
L 324.733432 157.381953 
L 324.960666 155.109691 
L 325.187899 154.652556 
L 325.869601 156.090151 
L 326.096835 155.434325 
L 326.324069 155.679406 
L 326.778537 152.579077 
L 327.460239 154.632696 
L 327.914707 150.677778 
L 328.141941 149.147452 
L 328.369175 149.982191 
L 329.050877 150.737378 
L 329.27811 151.631696 
L 329.505344 148.193524 
L 329.732578 147.822509 
L 329.959812 144.404187 
L 330.641514 145.066622 
L 330.868748 146.060352 
L 331.095982 142.006033 
L 331.55045 142.370603 
L 332.232152 142.689039 
L 332.459386 142.655857 
L 332.68662 139.79003 
L 332.913854 140.287555 
L 333.141087 137.892752 
L 333.822789 137.169634 
L 334.050023 137.27577 
L 334.277257 136.267428 
L 334.504491 136.532781 
L 334.731725 138.277491 
L 335.413427 140.897887 
L 335.640661 141.123428 
L 335.867895 140.924418 
L 336.095129 139.265942 
L 336.322363 143.518293 
L 337.004065 145.004259 
L 337.458532 147.763961 
L 337.685766 147.273056 
L 337.913 148.699339 
L 338.821936 149.548494 
L 339.04917 148.599834 
L 339.276404 149.594905 
L 339.503638 147.664456 
L 340.18534 143.644298 
L 340.412574 150.006217 
L 340.639808 149.031026 
L 341.094276 152.089265 
L 341.775977 149.581666 
L 342.003211 147.976263 
L 342.230445 150.085821 
L 342.457679 150.735924 
L 342.684913 152.268415 
L 343.366615 152.042832 
L 343.593849 151.386058 
L 343.821083 152.659794 
L 344.275551 160.381643 
L 344.957253 157.562227 
L 345.184487 155.140842 
L 345.41172 154.941832 
L 345.638954 155.585335 
L 345.866188 159.127838 
L 346.54789 158.908917 
L 346.775124 159.864217 
L 347.002358 160.288758 
L 347.229592 157.203999 
L 347.456826 160.262237 
L 348.365762 156.699823 
L 348.592996 156.626849 
L 348.82023 156.938624 
L 349.047464 154.364671 
L 349.729165 152.918487 
L 349.956399 151.001288 
L 350.183633 152.984841 
L 350.410867 156.003267 
L 350.638101 148.745772 
L 351.319803 150.337904 
L 351.547037 152.122426 
L 352.001505 159.930529 
L 352.228739 160.109948 
L 352.910441 159.751121 
L 353.137675 159.365691 
L 353.364908 162.442325 
L 353.592142 154.468425 
L 353.819376 152.587914 
L 354.501078 153.53149 
L 354.728312 152.361991 
L 354.955546 153.192626 
L 355.18278 151.910114 
L 355.410014 151.531376 
L 356.091716 153.710908 
L 356.31895 152.268992 
L 356.546184 151.677551 
L 357.682353 156.229313 
L 357.909587 158.25602 
L 358.136821 153.697617 
L 358.364055 153.511568 
L 358.591289 153.843801 
L 359.272991 154.627911 
L 359.727459 158.408845 
L 359.954693 157.27258 
L 360.181927 157.598162 
L 361.090863 155.39873 
L 361.318096 156.900431 
L 361.54533 161.359195 
L 361.772564 162.681539 
L 362.454266 164.103523 
L 362.6815 164.150058 
L 362.908734 162.056906 
L 363.135968 164.196563 
L 363.363202 164.442418 
L 364.272138 165.658431 
L 364.499372 168.309756 
L 364.726606 165.93753 
L 364.95384 165.724898 
L 365.862775 168.954306 
L 366.090009 168.097124 
L 366.317243 168.987545 
L 366.544477 165.930874 
L 367.226179 165.578703 
L 367.453413 165.193273 
L 367.680647 163.359287 
L 367.907881 163.412453 
L 368.135115 162.515402 
L 369.044051 161.731323 
L 369.271285 162.216382 
L 369.498518 162.176508 
L 369.725752 160.448832 
L 370.634688 157.352297 
L 370.861922 157.797523 
L 371.31639 155.093038 
L 371.998092 157.039996 
L 372.45256 155.425292 
L 372.907028 149.39836 
L 373.588729 151.239007 
L 373.815963 149.29869 
L 374.043197 151.112733 
L 374.270431 151.810444 
L 374.497665 151.564239 
L 375.179367 149.67419 
L 375.406601 150.106763 
L 375.633835 148.689255 
L 376.088303 150.539327 
L 376.997239 153.247947 
L 377.451706 152.635697 
L 377.67894 154.42587 
L 378.360642 153.620632 
L 378.587876 153.960031 
L 378.81511 155.357608 
L 379.042344 154.958289 
L 379.269578 151.550906 
L 379.95128 149.687481 
L 380.178514 151.17157 
L 380.405748 150.326386 
L 380.860216 153.234624 
L 381.541917 151.923602 
L 381.769151 150.512723 
L 381.996385 150.246545 
L 382.223619 148.343194 
L 382.450853 148.908867 
L 383.132555 147.311672 
L 383.359789 146.060497 
L 383.587023 147.0255 
L 384.041491 145.414962 
L 384.950427 147.145277 
L 385.404895 144.010734 
L 385.632128 142.320376 
L 386.31383 141.475171 
L 386.541064 141.834564 
L 386.768298 143.079068 
L 386.995532 142.480089 
L 387.904468 144.230357 
L 388.358936 145.514797 
L 388.58617 141.88112 
L 388.813404 142.114065 
L 389.495105 142.100753 
L 389.949573 140.503527 
L 390.176807 141.155723 
L 390.404041 142.240483 
L 391.085743 142.034214 
L 391.312977 143.072376 
L 391.540211 143.079068 
L 391.767445 139.984462 
L 391.994679 139.139257 
L 392.676381 139.199155 
L 393.130849 140.623346 
L 393.358083 141.728079 
L 393.585316 136.550435 
L 394.267018 136.597032 
L 394.494252 137.748341 
L 394.721486 136.557106 
L 394.94872 136.430657 
L 395.175954 137.057085 
L 396.08489 137.390298 
L 396.312124 136.97712 
L 396.539358 135.404363 
L 396.766592 135.331029 
L 397.448294 135.97081 
L 397.675527 137.730172 
L 397.902761 137.543577 
L 398.129995 136.777182 
L 398.357229 135.151105 
L 399.266165 133.90491 
L 399.493399 133.938226 
L 399.720633 132.045579 
L 399.947867 131.47243 
L 400.856803 132.632029 
L 401.084037 133.558375 
L 401.311271 131.725688 
L 401.538504 131.465779 
L 402.220206 129.579803 
L 402.44744 129.899673 
L 402.674674 129.473172 
L 402.901908 128.100323 
L 403.129142 128.82674 
L 404.038078 128.766769 
L 404.265312 129.466491 
L 404.492546 127.440589 
L 404.71978 127.653839 
L 405.401482 128.593486 
L 405.628715 126.734165 
L 405.855949 125.941105 
L 406.083183 125.714553 
L 406.310417 122.79557 
L 407.446587 124.554963 
L 407.673821 124.235062 
L 407.901055 124.988135 
L 408.809991 126.720822 
L 409.037225 125.59458 
L 409.264459 125.081433 
L 409.491693 124.981464 
L 410.173394 122.782279 
L 410.400628 122.955531 
L 410.627862 122.042539 
L 411.08233 124.148426 
L 411.764032 123.608645 
L 412.2185 122.442394 
L 412.445734 123.295405 
L 412.672968 121.556036 
L 413.35467 121.142848 
L 413.581904 121.702644 
L 413.809137 123.721905 
L 414.036371 124.661573 
L 414.263605 130.779338 
L 414.945307 132.871945 
L 415.172541 132.238825 
L 415.399775 133.311778 
L 415.627009 133.458395 
L 415.854243 133.418346 
L 416.535945 132.303921 
L 416.763179 133.645259 
L 416.990413 134.232493 
L 417.217647 135.947517 
L 418.126582 134.719635 
L 418.353816 133.792062 
L 418.58105 131.196156 
L 418.808284 134.359282 
L 419.035518 132.87114 
L 419.71722 131.816769 
L 420.171688 126.838527 
L 420.398922 126.691723 
L 420.626156 125.630659 
L 421.535092 125.470513 
L 421.989559 133.571842 
L 422.216793 133.158117 
L 422.898495 132.370625 
L 423.352963 135.807374 
L 423.580197 134.78637 
L 423.807431 135.273522 
L 424.716367 132.56417 
L 424.943601 134.953209 
L 425.170835 135.994237 
L 425.398069 135.420346 
L 426.07977 134.559488 
L 426.307004 137.308838 
L 426.534238 138.329863 
L 426.761472 138.156353 
L 426.988706 137.809333 
L 427.670408 136.114355 
L 427.897642 137.015262 
L 428.35211 135.340237 
L 428.579344 133.618542 
L 429.261046 132.617542 
L 429.48828 133.017934 
L 429.942747 131.469749 
L 430.169981 132.710984 
L 430.851683 132.797744 
L 431.306151 134.719635 
L 431.533385 134.973202 
L 431.760619 136.694918 
L 432.442321 136.614829 
L 432.669555 136.321222 
L 432.896789 137.88275 
L 433.124023 140.692185 
L 433.351257 139.804641 
L 434.260192 138.102971 
L 434.71466 133.565149 
L 434.941894 134.179111 
L 435.623596 132.457416 
L 435.85083 130.729039 
L 436.078064 130.014995 
L 436.305298 130.335298 
L 436.532532 127.508819 
L 437.214234 128.577936 
L 437.441468 126.813882 
L 437.668702 126.432989 
L 437.895935 125.297044 
L 438.123169 125.310397 
L 438.804871 124.134372 
L 439.032105 124.675627 
L 439.259339 124.227906 
L 439.713807 125.123318 
L 440.395509 125.2436 
L 440.622743 124.83599 
L 440.849977 125.524246 
L 441.077211 125.136671 
L 441.304445 124.274689 
L 441.986146 125.484155 
L 442.21338 122.818028 
L 442.440614 123.553025 
L 442.895082 121.287806 
L 443.576784 122.978391 
L 443.804018 121.956036 
L 444.031252 119.784372 
L 444.258486 119.684135 
L 445.167422 121.167544 
L 445.394656 120.465925 
L 445.62189 121.875834 
L 445.849123 121.976071 
L 446.076357 122.697725 
L 446.985293 123.065244 
L 447.212527 122.998426 
L 447.439761 122.711089 
L 447.666995 123.412728 
L 449.257633 130.996837 
L 449.939334 128.07009 
L 450.166568 128.350725 
L 450.393802 127.649116 
L 450.621036 128.050075 
L 450.84827 127.829545 
L 451.757206 129.359737 
L 451.98444 129.994527 
L 452.211674 126.018698 
L 452.438908 124.060882 
L 453.12061 122.503953 
L 453.347844 121.641961 
L 453.802312 122.316853 
L 454.029545 123.486228 
L 454.711247 123.947271 
L 455.165715 128.845229 
L 455.392949 127.201447 
L 455.620183 127.876307 
L 456.301885 126.653509 
L 456.529119 125.571018 
L 456.756353 125.497498 
L 456.983587 126.225833 
L 457.210821 125.710676 
L 457.892522 126.848075 
L 458.119756 128.259799 
L 458.34699 128.855262 
L 458.574224 129.049271 
L 458.801458 130.086309 
L 459.710394 130.588113 
L 459.937628 130.079627 
L 460.164862 128.708066 
L 460.392096 129.945806 
L 461.073798 130.855725 
L 461.301032 129.872203 
L 461.7555 131.13005 
L 461.982733 131.859334 
L 462.664435 134.910189 
L 462.891669 138.242123 
L 463.118903 138.911168 
L 463.346137 138.991463 
L 463.573371 137.834008 
L 464.482307 136.161344 
L 464.709541 137.566365 
L 464.936775 136.315231 
L 465.164009 136.569469 
L 465.845711 135.833514 
L 466.300178 132.521677 
L 466.527412 137.405807 
L 466.754646 136.796949 
L 467.436348 137.753713 
L 467.663582 138.516417 
L 467.890816 136.107828 
L 468.11805 137.332214 
L 469.026986 138.302342 
L 469.25422 139.098506 
L 469.481454 138.556569 
L 469.708688 139.11189 
L 469.935922 138.603404 
L 470.617623 139.359446 
L 470.844857 138.543206 
L 471.072091 139.807734 
L 471.299325 134.950363 
L 471.526559 133.940082 
L 472.208261 136.522635 
L 472.435495 138.737225 
L 473.117197 141.667685 
L 473.798899 141.105693 
L 474.026132 140.396474 
L 474.253366 138.978079 
L 474.4806 138.39599 
L 474.707834 138.790741 
L 475.389536 135.980709 
L 475.61677 138.10161 
L 475.844004 138.790741 
L 476.071238 136.295165 
L 476.298472 129.37043 
L 476.980174 130.487742 
L 477.434642 129.798611 
L 477.661876 128.574235 
L 477.88911 129.425101 
L 478.798045 126.490661 
L 479.025279 124.956428 
L 479.479747 124.855922 
L 480.161449 124.07208 
L 480.388683 123.194415 
L 480.615917 124.165873 
L 480.843151 126.859129 
L 481.070385 124.782247 
L 481.979321 124.775524 
L 482.206554 124.574555 
L 482.661022 123.261429 
L 483.569958 121.85449 
L 483.797192 120.836156 
L 484.024426 121.76741 
L 484.25166 120.152778 
L 484.933362 122.678556 
L 485.160596 113.27896 
L 485.38783 109.312751 
L 485.615064 108.528909 
L 485.842298 109.701336 
L 486.523999 106.900904 
L 487.432935 113.05116 
L 488.114637 112.615669 
L 488.341871 111.992602 
L 488.569105 109.19217 
L 488.796339 108.622691 
L 489.023573 110.954172 
L 489.705275 106.847284 
L 489.932509 104.489015 
L 490.159742 103.631467 
L 490.61421 100.422342 
L 491.295912 99.430777 
L 491.523146 98.854617 
L 491.75038 95.973766 
L 491.977614 99.598255 
L 492.204848 97.608484 
L 492.88655 95.022415 
L 493.113784 94.741048 
L 493.568252 101.869455 
L 493.795486 101.782375 
L 494.477187 102.016836 
L 494.704421 101.313382 
L 494.931655 105.648048 
L 495.158889 106.351512 
L 495.386123 106.036623 
L 496.067825 105.849027 
L 496.295059 105.473878 
L 496.522293 103.276384 
L 496.749527 105.76865 
L 496.976761 104.763701 
L 497.885697 113.225372 
L 498.567398 107.188984 
L 499.2491 106.156008 
L 499.476334 103.64746 
L 499.703568 103.345615 
L 499.930802 101.333417 
L 500.158036 100.441326 
L 500.839738 100.548647 
L 501.066972 100.132798 
L 501.294206 100.206566 
L 501.52144 101.460845 
L 501.748674 99.911433 
L 502.430375 99.683407 
L 502.657609 99.113268 
L 502.884843 100.146193 
L 503.112077 97.932747 
L 503.339311 98.46264 
L 504.475481 103.929178 
L 504.702715 102.902925 
L 504.929949 103.949296 
L 505.611651 103.888922 
L 505.838885 104.425518 
L 506.066119 102.715124 
L 506.293352 102.641346 
L 506.520586 102.822466 
L 507.202288 106.967629 
L 507.429522 106.652368 
L 507.656756 104.036489 
L 507.88399 98.549843 
L 508.792926 100.159608 
L 509.02016 99.555958 
L 509.247394 100.226683 
L 509.474628 99.455318 
L 509.701862 99.27425 
L 510.383563 95.779675 
L 510.610797 100.334005 
L 510.838031 99.951678 
L 511.065265 100.696203 
L 511.292499 99.938284 
L 511.974201 103.365742 
L 512.428669 98.100452 
L 512.655903 98.43582 
L 512.883137 99.435221 
L 513.564839 96.91993 
L 513.792073 95.209557 
L 514.019307 96.597998 
L 514.24654 96.349802 
L 514.473774 94.438202 
L 515.155476 93.445513 
L 515.38271 93.861372 
L 515.609944 97.282139 
L 515.837178 97.409577 
L 516.064412 96.846152 
L 516.746114 95.511382 
L 516.973348 95.330283 
L 517.65505 102.54745 
L 518.336751 103.151121 
L 518.563985 102.185262 
L 518.791219 102.674899 
L 519.018453 99.482169 
L 519.245687 99.663464 
L 519.927389 101.496605 
L 520.154623 101.496605 
L 520.381857 100.898987 
L 520.609091 98.817403 
L 520.836325 100.97957 
L 521.518027 98.951689 
L 521.745261 98.777127 
L 521.972495 98.293646 
L 522.199729 98.61596 
L 522.426962 97.709474 
L 523.108664 95.695049 
L 523.335898 94.224488 
L 523.563132 94.311795 
L 524.0176 92.700236 
L 524.699302 91.182697 
L 524.926536 89.127995 
L 525.15377 88.886234 
L 525.381004 88.866106 
L 525.608238 89.000402 
L 526.517173 85.690019 
L 526.744407 86.549505 
L 526.971641 85.562425 
L 527.198875 85.448268 
L 527.880577 83.494278 
L 528.107811 81.855878 
L 528.335045 85.502001 
L 528.562279 84.333636 
L 528.789513 81.177687 
L 529.471215 80.653919 
L 529.698449 78.686493 
L 530.152917 78.135885 
L 530.38015 80.439061 
L 531.061852 82.715365 
L 531.289086 83.91059 
L 531.743554 88.32221 
L 531.970788 88.651216 
L 532.65249 87.55001 
L 532.879724 89.423427 
L 533.106958 89.094411 
L 533.561426 93.02255 
L 534.470361 95.419724 
L 534.697595 92.337636 
L 534.924829 98.790553 
L 535.152063 97.635614 
L 536.060999 102.564268 
L 536.288233 101.765196 
L 536.515467 101.879333 
L 536.742701 102.470259 
L 537.424403 97.716177 
L 537.651637 92.075767 
L 537.878871 91.337151 
L 538.333339 93.593307 
L 539.01504 98.958422 
L 539.242274 95.742048 
L 539.469508 95.96363 
L 539.696742 95.460021 
L 539.923976 99.213568 
L 540.605678 99.032087 
L 541.28738 89.701721 
L 541.514614 87.637997 
L 542.423549 87.725397 
L 542.650783 87.456527 
L 542.878017 86.811198 
L 543.105251 86.999412 
L 543.786953 85.957465 
L 544.014187 85.997814 
L 544.241421 90.488203 
L 544.468655 92.545183 
L 544.695889 89.493328 
L 545.377591 92.054474 
L 545.604825 93.466136 
L 545.832059 93.593843 
L 546.059293 93.869446 
L 546.286527 91.355361 
L 546.968228 99.146358 
L 547.64993 111.111823 
L 547.877164 108.550656 
L 548.558866 108.207822 
L 548.7861 109.088427 
L 549.013334 107.37428 
L 549.240568 108.140602 
L 549.467802 105.337458 
L 550.149504 103.683818 
L 550.376738 101.65373 
L 550.603971 103.146037 
L 550.831205 101.586489 
L 551.058439 105.5862 
L 551.967375 102.030168 
L 552.194609 101.559608 
L 552.649077 125.429999 
L 553.330779 130.081741 
L 553.558013 136.158581 
L 553.785247 118.39191 
L 554.012481 124.058696 
L 554.239715 118.862461 
L 554.921416 115.924866 
L 555.14865 116.180321 
L 555.375884 121.470658 
L 555.603118 119.648953 
L 556.512054 122.216832 
L 556.966522 114.526671 
L 557.193756 111.992406 
L 557.42099 111.380693 
L 558.102692 110.802584 
L 558.784393 108.664937 
L 559.011627 114.022484 
L 559.693329 118.365008 
L 559.920563 118.620462 
L 560.147797 120.139662 
L 560.602265 118.607006 
L 561.511201 108.739406 
L 562.192903 109.863473 
L 562.874604 111.532755 
L 563.101838 112.825093 
L 563.329072 116.035775 
L 563.556306 116.527134 
L 563.78354 120.626309 
L 564.692476 117.301201 
L 564.91971 117.159852 
L 565.146944 117.476206 
L 565.374178 116.870421 
L 566.05588 116.298293 
L 566.283114 115.241519 
L 566.510348 115.544416 
L 566.737581 117.018504 
L 566.964815 114.804016 
L 567.646517 116.466575 
L 567.873751 115.645375 
L 568.100985 118.263739 
L 568.328219 117.981032 
L 568.555453 119.832052 
L 569.237155 118.506047 
L 569.464389 120.377268 
L 569.691623 119.74455 
L 570.146091 116.769452 
L 570.827792 116.432919 
L 571.055026 117.240621 
L 571.28226 116.392519 
L 571.509494 116.769452 
L 571.736728 116.715606 
L 572.41843 113.962647 
L 572.645664 112.178929 
L 572.872898 109.069216 
L 573.100132 108.322083 
L 574.009068 110.745232 
L 574.236302 110.704852 
L 574.690769 109.089406 
L 574.918003 109.930786 
L 575.599705 111.640457 
L 575.826939 111.310637 
L 576.054173 110.603883 
L 576.281407 110.698119 
L 576.508641 109.917329 
L 577.190343 109.042293 
L 577.417577 107.749955 
L 577.872045 108.180734 
L 578.099279 108.099955 
L 578.78098 107.985519 
L 579.235448 111.351016 
L 579.462682 112.347201 
L 579.689916 115.84058 
L 580.371618 115.187673 
L 580.598852 115.477104 
L 581.280554 97.68714 
L 581.962256 98.974219 
L 582.416724 94.829963 
L 582.643957 95.200586 
L 582.871191 96.002494 
L 583.780127 96.696564 
L 584.007361 99.762639 
L 584.234595 100.510629 
L 584.461829 98.583386 
L 585.143531 98.987696 
L 585.825233 95.348833 
L 586.052467 95.631861 
L 586.961402 97.262599 
L 587.188636 91.366312 
L 587.41587 90.483573 
L 587.643104 90.544204 
L 588.324806 91.763888 
L 588.55204 94.142616 
L 588.779274 99.237026 
L 589.233742 94.331294 
L 589.915444 92.559052 
L 590.369912 91.015899 
L 590.597146 91.763888 
L 590.824379 86.629068 
L 591.506081 79.49962 
L 591.960549 82.040081 
L 592.187783 78.967273 
L 592.415017 79.917407 
L 593.096719 80.611478 
L 593.323953 80.476708 
L 593.551187 79.92415 
L 594.005655 78.19233 
L 594.91459 79.230059 
L 595.141824 78.165355 
L 595.369058 80.874305 
L 595.596292 86.784048 
L 596.277994 85.17352 
L 596.505228 85.099402 
L 596.732462 84.041442 
L 596.959696 85.315044 
L 597.18693 82.053558 
L 597.868632 75.34863 
L 598.095866 74.991485 
L 598.3231 77.902559 
L 598.550334 77.141123 
L 598.777567 74.957787 
L 599.459269 70.921368 
L 599.686503 70.793342 
L 599.913737 70.321615 
L 600.140971 69.17606 
L 600.368205 69.870141 
L 601.049907 70.759623 
L 601.277141 70.092496 
L 601.504375 70.025121 
L 601.731609 70.274451 
L 601.958843 71.150467 
L 602.640545 70.327575 
L 602.867778 66.40188 
L 603.095012 67.602499 
L 603.54948 68.317491 
L 604.231182 71.656365 
L 604.458416 71.669852 
L 604.68565 70.914377 
L 604.912884 72.472512 
L 605.140118 68.938073 
L 606.049054 65.241724 
L 606.730756 63.973627 
L 607.412457 61.106934 
L 607.639691 59.02269 
L 607.866925 60.398705 
L 608.321393 64.020854 
L 609.003095 64.621163 
L 609.230329 65.100066 
L 609.457563 64.020854 
L 609.684797 64.526731 
L 609.912031 64.358119 
L 610.593733 67.170843 
L 610.820966 66.833577 
L 611.0482 68.701983 
L 611.275434 68.465893 
L 611.502668 67.467605 
L 612.18437 69.288805 
L 612.638838 67.373194 
L 613.093306 67.649725 
L 613.775008 67.406891 
L 614.002242 67.865604 
L 614.229476 68.688496 
L 614.683944 69.26181 
L 615.365645 71.791238 
L 615.592879 75.096372 
L 616.047347 77.335761 
L 616.956283 76.519614 
L 617.183517 75.979998 
L 617.410751 76.715221 
L 617.637985 77.895609 
L 617.865219 79.703321 
L 618.774155 85.65928 
L 619.228622 84.546329 
L 619.455856 84.755434 
L 620.364792 77.855147 
L 620.592026 79.089504 
L 621.046494 77.038958 
L 621.728196 69.93634 
L 621.95543 70.293816 
L 622.182664 65.565502 
L 622.409898 65.956696 
L 622.637132 64.466038 
L 623.546067 67.288145 
L 623.773301 66.059377 
L 624.000535 75.356117 
L 624.227769 79.373253 
L 625.136705 73.90456 
L 625.363939 73.587237 
L 625.591173 76.132565 
L 625.818407 73.431968 
L 626.500109 72.351745 
L 626.727343 68.327844 
L 626.954576 66.91679 
L 627.18181 67.780989 
L 627.409044 73.702023 
L 628.090746 73.337453 
L 628.545214 74.82277 
L 628.999682 78.23902 
L 629.908618 75.963768 
L 630.135852 75.977275 
L 630.59032 83.194577 
L 631.272021 81.371675 
L 631.499255 80.419727 
L 631.726489 83.316097 
L 632.180957 84.632636 
L 632.862659 82.269623 
L 633.089893 82.168355 
L 633.317127 81.506714 
L 633.544361 81.324418 
L 633.771595 84.085771 
L 634.453297 85.550835 
L 634.680531 80.716798 
L 634.907765 79.474522 
L 635.134998 79.278729 
L 636.043934 77.293815 
L 636.271168 80.912581 
L 636.498402 77.266799 
L 636.725636 76.19332 
L 636.95287 76.200064 
L 637.861806 77.314066 
L 638.08904 72.182947 
L 638.316274 74.228647 
L 638.543508 69.617388 
L 639.225209 67.713491 
L 639.452443 72.358468 
L 639.679677 67.632443 
L 639.906911 67.456922 
L 640.134145 69.057025 
L 640.815847 71.386288 
L 641.043081 69.293321 
L 641.270315 69.657891 
L 641.497549 68.861212 
L 641.724783 62.92669 
L 642.406485 65.161439 
L 642.633719 60.199097 
L 642.860953 57.950861 
L 643.088186 57.998128 
L 643.31542 54.028259 
L 643.997122 54.27831 
L 644.224356 52.845685 
L 644.45159 50.095304 
L 644.678824 50.541314 
L 644.906058 49.176249 
L 645.58776 50.791345 
L 645.814994 50.027723 
L 646.496696 43.371404 
L 647.405631 43.702544 
L 647.860099 40.877818 
L 648.087333 41.181922 
L 648.769035 45.067588 
L 648.996269 39.06 
L 649.223503 42.398296 
L 649.450737 41.7428 
L 649.677971 44.371548 
L 650.359673 48.290994 
L 650.586907 55.7177 
L 650.814141 55.021659 
L 651.041374 52.284786 
L 651.268608 55.325743 
L 651.95031 51.750924 
L 652.177544 49.845273 
L 652.404778 52.068536 
L 652.632012 50.676455 
L 653.540948 51.352223 
L 653.768182 53.183569 
L 653.768182 53.183569 
" clip-path="url(#pf5f17109b2)" style="fill: none; stroke: #1f77b4; stroke-width: 1.5; stroke-linecap: square"/>
   </g>
   <g id="patch_3">
    <path d="M 94.5 224.28 
L 94.5 30.24 
" style="fill: none; stroke: #000000; stroke-width: 0.8; stroke-linejoin: miter; stroke-linecap: square"/>
   </g>
   <g id="patch_4">
    <path d="M 94.5 224.28 
L 680.4 224.28 
" style="fill: none; stroke: #000000; stroke-width: 0.8; stroke-linejoin: miter; stroke-linecap: square"/>
   </g>
  </g>
 </g>
 <defs>
  <clipPath id="pf5f17109b2">
   <rect x="94.5" y="30.24" width="585.9" height="194.04"/>
  </clipPath>
 </defs>
</svg>
