<?xml version="1.0" encoding="utf-8" standalone="no"?>
<!DOCTYPE svg PUBLIC "-//W3C//DTD SVG 1.1//EN"
  "http://www.w3.org/Graphics/SVG/1.1/DTD/svg11.dtd">
<svg xmlns:xlink="http://www.w3.org/1999/xlink" width="756pt" height="252pt" viewBox="0 0 756 252" xmlns="http://www.w3.org/2000/svg" version="1.1">
 <metadata>
  <rdf:RDF xmlns:dc="http://purl.org/dc/elements/1.1/" xmlns:cc="http://creativecommons.org/ns#" xmlns:rdf="http://www.w3.org/1999/02/22-rdf-syntax-ns#">
   <cc:Work>
    <dc:type rdf:resource="http://purl.org/dc/dcmitype/StillImage"/>
    <dc:date>2026-06-26T14:36:53.441236</dc:date>
    <dc:format>image/svg+xml</dc:format>
    <dc:creator>
     <cc:Agent>
      <dc:title>Matplotlib v3.10.9, https://matplotlib.org/</dc:title>
     </cc:Agent>
    </dc:creator>
   </cc:Work>
  </rdf:RDF>
 </metadata>
 <defs>
  <style type="text/css">*{stroke-linejoin: round; stroke-linecap: butt}</style>
 </defs>
 <g id="figure_1">
  <g id="patch_1">
   <path d="M 0 252 
L 756 252 
L 756 0 
L 0 0 
z
" style="fill: #ffffff"/>
  </g>
  <g id="axes_1">
   <g id="patch_2">
    <path d="M 94.5 224.28 
L 680.4 224.28 
L 680.4 30.24 
L 94.5 30.24 
z
" style="fill: #ffffff"/>
   </g>
   <g id="matplotlib.axis_1">
    <g id="xtick_1">
     <g id="line2d_1">
      <defs>
       <path id="mecc2ae0666" d="M 0 0 
L 0 3.5 
" style="stroke: #000000; stroke-width: 0.8"/>
      </defs>
      <g>
       <use xlink:href="#mecc2ae0666" x="139.300743" y="224.28" style="stroke: #000000; stroke-width: 0.8"/>
      </g>
     </g>
     <g id="text_1">
      <!-- 2025-01 -->
      <g transform="translate(118.409336 238.878438) scale(0.1 -0.1)">
       <defs>
        <path id="DejaVuSans-32" d="M 1228 531 
L 3431 531 
L 3431 0 
L 469 0 
L 469 531 
Q 828 903 1448 1529 
Q 2069 2156 2228 2338 
Q 2531 2678 2651 2914 
Q 2772 3150 2772 3378 
Q 2772 3750 2511 3984 
Q 2250 4219 1831 4219 
Q 1534 4219 1204 4116 
Q 875 4013 500 3803 
L 500 4441 
Q 881 4594 1212 4672 
Q 1544 4750 1819 4750 
Q 2544 4750 2975 4387 
Q 3406 4025 3406 3419 
Q 3406 3131 3298 2873 
Q 3191 2616 2906 2266 
Q 2828 2175 2409 1742 
Q 1991 1309 1228 531 
z
" transform="scale(0.015625)"/>
        <path id="DejaVuSans-30" d="M 2034 4250 
Q 1547 4250 1301 3770 
Q 1056 3291 1056 2328 
Q 1056 1369 1301 889 
Q 1547 409 2034 409 
Q 2525 409 2770 889 
Q 3016 1369 3016 2328 
Q 3016 3291 2770 3770 
Q 2525 4250 2034 4250 
z
M 2034 4750 
Q 2819 4750 3233 4129 
Q 3647 3509 3647 2328 
Q 3647 1150 3233 529 
Q 2819 -91 2034 -91 
Q 1250 -91 836 529 
Q 422 1150 422 2328 
Q 422 3509 836 4129 
Q 1250 4750 2034 4750 
z
" transform="scale(0.015625)"/>
        <path id="DejaVuSans-35" d="M 691 4666 
L 3169 4666 
L 3169 4134 
L 1269 4134 
L 1269 2991 
Q 1406 3038 1543 3061 
Q 1681 3084 1819 3084 
Q 2600 3084 3056 2656 
Q 3513 2228 3513 1497 
Q 3513 744 3044 326 
Q 2575 -91 1722 -91 
Q 1428 -91 1123 -41 
Q 819 9 494 109 
L 494 744 
Q 775 591 1075 516 
Q 1375 441 1709 441 
Q 2250 441 2565 725 
Q 2881 1009 2881 1497 
Q 2881 1984 2565 2268 
Q 2250 2553 1709 2553 
Q 1456 2553 1204 2497 
Q 953 2441 691 2322 
L 691 4666 
z
" transform="scale(0.015625)"/>
        <path id="DejaVuSans-2d" d="M 313 2009 
L 1997 2009 
L 1997 1497 
L 313 1497 
L 313 2009 
z
" transform="scale(0.015625)"/>
        <path id="DejaVuSans-31" d="M 794 531 
L 1825 531 
L 1825 4091 
L 703 3866 
L 703 4441 
L 1819 4666 
L 2450 4666 
L 2450 531 
L 3481 531 
L 3481 0 
L 794 0 
L 794 531 
z
" transform="scale(0.015625)"/>
       </defs>
       <use xlink:href="#DejaVuSans-32"/>
       <use xlink:href="#DejaVuSans-30" transform="translate(63.623047 0)"/>
       <use xlink:href="#DejaVuSans-32" transform="translate(127.246094 0)"/>
       <use xlink:href="#DejaVuSans-35" transform="translate(190.869141 0)"/>
       <use xlink:href="#DejaVuSans-2d" transform="translate(254.492188 0)"/>
       <use xlink:href="#DejaVuSans-30" transform="translate(290.576172 0)"/>
       <use xlink:href="#DejaVuSans-31" transform="translate(354.199219 0)"/>
      </g>
     </g>
    </g>
    <g id="xtick_2">
     <g id="line2d_2">
      <g>
       <use xlink:href="#mecc2ae0666" x="195.720034" y="224.28" style="stroke: #000000; stroke-width: 0.8"/>
      </g>
     </g>
     <g id="text_2">
      <!-- 2025-03 -->
      <g transform="translate(174.828628 238.878438) scale(0.1 -0.1)">
       <defs>
        <path id="DejaVuSans-33" d="M 2597 2516 
Q 3050 2419 3304 2112 
Q 3559 1806 3559 1356 
Q 3559 666 3084 287 
Q 2609 -91 1734 -91 
Q 1441 -91 1130 -33 
Q 819 25 488 141 
L 488 750 
Q 750 597 1062 519 
Q 1375 441 1716 441 
Q 2309 441 2620 675 
Q 2931 909 2931 1356 
Q 2931 1769 2642 2001 
Q 2353 2234 1838 2234 
L 1294 2234 
L 1294 2753 
L 1863 2753 
Q 2328 2753 2575 2939 
Q 2822 3125 2822 3475 
Q 2822 3834 2567 4026 
Q 2313 4219 1838 4219 
Q 1578 4219 1281 4162 
Q 984 4106 628 3988 
L 628 4550 
Q 988 4650 1302 4700 
Q 1616 4750 1894 4750 
Q 2613 4750 3031 4423 
Q 3450 4097 3450 3541 
Q 3450 3153 3228 2886 
Q 3006 2619 2597 2516 
z
" transform="scale(0.015625)"/>
       </defs>
       <use xlink:href="#DejaVuSans-32"/>
       <use xlink:href="#DejaVuSans-30" transform="translate(63.623047 0)"/>
       <use xlink:href="#DejaVuSans-32" transform="translate(127.246094 0)"/>
       <use xlink:href="#DejaVuSans-35" transform="translate(190.869141 0)"/>
       <use xlink:href="#DejaVuSans-2d" transform="translate(254.492188 0)"/>
       <use xlink:href="#DejaVuSans-30" transform="translate(290.576172 0)"/>
       <use xlink:href="#DejaVuSans-33" transform="translate(354.199219 0)"/>
      </g>
     </g>
    </g>
    <g id="xtick_3">
     <g id="line2d_3">
      <g>
       <use xlink:href="#mecc2ae0666" x="254.051844" y="224.28" style="stroke: #000000; stroke-width: 0.8"/>
      </g>
     </g>
     <g id="text_3">
      <!-- 2025-05 -->
      <g transform="translate(233.160438 238.878438) scale(0.1 -0.1)">
       <use xlink:href="#DejaVuSans-32"/>
       <use xlink:href="#DejaVuSans-30" transform="translate(63.623047 0)"/>
       <use xlink:href="#DejaVuSans-32" transform="translate(127.246094 0)"/>
       <use xlink:href="#DejaVuSans-35" transform="translate(190.869141 0)"/>
       <use xlink:href="#DejaVuSans-2d" transform="translate(254.492188 0)"/>
       <use xlink:href="#DejaVuSans-30" transform="translate(290.576172 0)"/>
       <use xlink:href="#DejaVuSans-35" transform="translate(354.199219 0)"/>
      </g>
     </g>
    </g>
    <g id="xtick_4">
     <g id="line2d_4">
      <g>
       <use xlink:href="#mecc2ae0666" x="312.383654" y="224.28" style="stroke: #000000; stroke-width: 0.8"/>
      </g>
     </g>
     <g id="text_4">
      <!-- 2025-07 -->
      <g transform="translate(291.492248 238.878438) scale(0.1 -0.1)">
       <defs>
        <path id="DejaVuSans-37" d="M 525 4666 
L 3525 4666 
L 3525 4397 
L 1831 0 
L 1172 0 
L 2766 4134 
L 525 4134 
L 525 4666 
z
" transform="scale(0.015625)"/>
       </defs>
       <use xlink:href="#DejaVuSans-32"/>
       <use xlink:href="#DejaVuSans-30" transform="translate(63.623047 0)"/>
       <use xlink:href="#DejaVuSans-32" transform="translate(127.246094 0)"/>
       <use xlink:href="#DejaVuSans-35" transform="translate(190.869141 0)"/>
       <use xlink:href="#DejaVuSans-2d" transform="translate(254.492188 0)"/>
       <use xlink:href="#DejaVuSans-30" transform="translate(290.576172 0)"/>
       <use xlink:href="#DejaVuSans-37" transform="translate(354.199219 0)"/>
      </g>
     </g>
    </g>
    <g id="xtick_5">
     <g id="line2d_5">
      <g>
       <use xlink:href="#mecc2ae0666" x="371.671724" y="224.28" style="stroke: #000000; stroke-width: 0.8"/>
      </g>
     </g>
     <g id="text_5">
      <!-- 2025-09 -->
      <g transform="translate(350.780317 238.878438) scale(0.1 -0.1)">
       <defs>
        <path id="DejaVuSans-39" d="M 703 97 
L 703 672 
Q 941 559 1184 500 
Q 1428 441 1663 441 
Q 2288 441 2617 861 
Q 2947 1281 2994 2138 
Q 2813 1869 2534 1725 
Q 2256 1581 1919 1581 
Q 1219 1581 811 2004 
Q 403 2428 403 3163 
Q 403 3881 828 4315 
Q 1253 4750 1959 4750 
Q 2769 4750 3195 4129 
Q 3622 3509 3622 2328 
Q 3622 1225 3098 567 
Q 2575 -91 1691 -91 
Q 1453 -91 1209 -44 
Q 966 3 703 97 
z
M 1959 2075 
Q 2384 2075 2632 2365 
Q 2881 2656 2881 3163 
Q 2881 3666 2632 3958 
Q 2384 4250 1959 4250 
Q 1534 4250 1286 3958 
Q 1038 3666 1038 3163 
Q 1038 2656 1286 2365 
Q 1534 2075 1959 2075 
z
" transform="scale(0.015625)"/>
       </defs>
       <use xlink:href="#DejaVuSans-32"/>
       <use xlink:href="#DejaVuSans-30" transform="translate(63.623047 0)"/>
       <use xlink:href="#DejaVuSans-32" transform="translate(127.246094 0)"/>
       <use xlink:href="#DejaVuSans-35" transform="translate(190.869141 0)"/>
       <use xlink:href="#DejaVuSans-2d" transform="translate(254.492188 0)"/>
       <use xlink:href="#DejaVuSans-30" transform="translate(290.576172 0)"/>
       <use xlink:href="#DejaVuSans-39" transform="translate(354.199219 0)"/>
      </g>
     </g>
    </g>
    <g id="xtick_6">
     <g id="line2d_6">
      <g>
       <use xlink:href="#mecc2ae0666" x="430.003534" y="224.28" style="stroke: #000000; stroke-width: 0.8"/>
      </g>
     </g>
     <g id="text_6">
      <!-- 2025-11 -->
      <g transform="translate(409.112127 238.878438) scale(0.1 -0.1)">
       <use xlink:href="#DejaVuSans-32"/>
       <use xlink:href="#DejaVuSans-30" transform="translate(63.623047 0)"/>
       <use xlink:href="#DejaVuSans-32" transform="translate(127.246094 0)"/>
       <use xlink:href="#DejaVuSans-35" transform="translate(190.869141 0)"/>
       <use xlink:href="#DejaVuSans-2d" transform="translate(254.492188 0)"/>
       <use xlink:href="#DejaVuSans-31" transform="translate(290.576172 0)"/>
       <use xlink:href="#DejaVuSans-31" transform="translate(354.199219 0)"/>
      </g>
     </g>
    </g>
    <g id="xtick_7">
     <g id="line2d_7">
      <g>
       <use xlink:href="#mecc2ae0666" x="488.335344" y="224.28" style="stroke: #000000; stroke-width: 0.8"/>
      </g>
     </g>
     <g id="text_7">
      <!-- 2026-01 -->
      <g transform="translate(467.443937 238.878438) scale(0.1 -0.1)">
       <defs>
        <path id="DejaVuSans-36" d="M 2113 2584 
Q 1688 2584 1439 2293 
Q 1191 2003 1191 1497 
Q 1191 994 1439 701 
Q 1688 409 2113 409 
Q 2538 409 2786 701 
Q 3034 994 3034 1497 
Q 3034 2003 2786 2293 
Q 2538 2584 2113 2584 
z
M 3366 4563 
L 3366 3988 
Q 3128 4100 2886 4159 
Q 2644 4219 2406 4219 
Q 1781 4219 1451 3797 
Q 1122 3375 1075 2522 
Q 1259 2794 1537 2939 
Q 1816 3084 2150 3084 
Q 2853 3084 3261 2657 
Q 3669 2231 3669 1497 
Q 3669 778 3244 343 
Q 2819 -91 2113 -91 
Q 1303 -91 875 529 
Q 447 1150 447 2328 
Q 447 3434 972 4092 
Q 1497 4750 2381 4750 
Q 2619 4750 2861 4703 
Q 3103 4656 3366 4563 
z
" transform="scale(0.015625)"/>
       </defs>
       <use xlink:href="#DejaVuSans-32"/>
       <use xlink:href="#DejaVuSans-30" transform="translate(63.623047 0)"/>
       <use xlink:href="#DejaVuSans-32" transform="translate(127.246094 0)"/>
       <use xlink:href="#DejaVuSans-36" transform="translate(190.869141 0)"/>
       <use xlink:href="#DejaVuSans-2d" transform="translate(254.492188 0)"/>
       <use xlink:href="#DejaVuSans-30" transform="translate(290.576172 0)"/>
       <use xlink:href="#DejaVuSans-31" transform="translate(354.199219 0)"/>
      </g>
     </g>
    </g>
    <g id="xtick_8">
     <g id="line2d_8">
      <g>
       <use xlink:href="#mecc2ae0666" x="544.754635" y="224.28" style="stroke: #000000; stroke-width: 0.8"/>
      </g>
     </g>
     <g id="text_8">
      <!-- 2026-03 -->
      <g transform="translate(523.863229 238.878438) scale(0.1 -0.1)">
       <use xlink:href="#DejaVuSans-32"/>
       <use xlink:href="#DejaVuSans-30" transform="translate(63.623047 0)"/>
       <use xlink:href="#DejaVuSans-32" transform="translate(127.246094 0)"/>
       <use xlink:href="#DejaVuSans-36" transform="translate(190.869141 0)"/>
       <use xlink:href="#DejaVuSans-2d" transform="translate(254.492188 0)"/>
       <use xlink:href="#DejaVuSans-30" transform="translate(290.576172 0)"/>
       <use xlink:href="#DejaVuSans-33" transform="translate(354.199219 0)"/>
      </g>
     </g>
    </g>
    <g id="xtick_9">
     <g id="line2d_9">
      <g>
       <use xlink:href="#mecc2ae0666" x="603.086445" y="224.28" style="stroke: #000000; stroke-width: 0.8"/>
      </g>
     </g>
     <g id="text_9">
      <!-- 2026-05 -->
      <g transform="translate(582.195039 238.878438) scale(0.1 -0.1)">
       <use xlink:href="#DejaVuSans-32"/>
       <use xlink:href="#DejaVuSans-30" transform="translate(63.623047 0)"/>
       <use xlink:href="#DejaVuSans-32" transform="translate(127.246094 0)"/>
       <use xlink:href="#DejaVuSans-36" transform="translate(190.869141 0)"/>
       <use xlink:href="#DejaVuSans-2d" transform="translate(254.492188 0)"/>
       <use xlink:href="#DejaVuSans-30" transform="translate(290.576172 0)"/>
       <use xlink:href="#DejaVuSans-35" transform="translate(354.199219 0)"/>
      </g>
     </g>
    </g>
    <g id="xtick_10">
     <g id="line2d_10">
      <g>
       <use xlink:href="#mecc2ae0666" x="661.418255" y="224.28" style="stroke: #000000; stroke-width: 0.8"/>
      </g>
     </g>
     <g id="text_10">
      <!-- 2026-07 -->
      <g transform="translate(640.526849 238.878438) scale(0.1 -0.1)">
       <use xlink:href="#DejaVuSans-32"/>
       <use xlink:href="#DejaVuSans-30" transform="translate(63.623047 0)"/>
       <use xlink:href="#DejaVuSans-32" transform="translate(127.246094 0)"/>
       <use xlink:href="#DejaVuSans-36" transform="translate(190.869141 0)"/>
       <use xlink:href="#DejaVuSans-2d" transform="translate(254.492188 0)"/>
       <use xlink:href="#DejaVuSans-30" transform="translate(290.576172 0)"/>
       <use xlink:href="#DejaVuSans-37" transform="translate(354.199219 0)"/>
      </g>
     </g>
    </g>
   </g>
   <g id="matplotlib.axis_2">
    <g id="ytick_1">
     <g id="line2d_11">
      <defs>
       <path id="mb327950602" d="M 0 0 
L -3.5 0 
" style="stroke: #000000; stroke-width: 0.8"/>
      </defs>
      <g>
       <use xlink:href="#mb327950602" x="94.5" y="205.04166" style="stroke: #000000; stroke-width: 0.8"/>
      </g>
     </g>
     <g id="text_11">
      <!-- 180 -->
      <g transform="translate(68.4125 208.840879) scale(0.1 -0.1)">
       <defs>
        <path id="DejaVuSans-38" d="M 2034 2216 
Q 1584 2216 1326 1975 
Q 1069 1734 1069 1313 
Q 1069 891 1326 650 
Q 1584 409 2034 409 
Q 2484 409 2743 651 
Q 3003 894 3003 1313 
Q 3003 1734 2745 1975 
Q 2488 2216 2034 2216 
z
M 1403 2484 
Q 997 2584 770 2862 
Q 544 3141 544 3541 
Q 544 4100 942 4425 
Q 1341 4750 2034 4750 
Q 2731 4750 3128 4425 
Q 3525 4100 3525 3541 
Q 3525 3141 3298 2862 
Q 3072 2584 2669 2484 
Q 3125 2378 3379 2068 
Q 3634 1759 3634 1313 
Q 3634 634 3220 271 
Q 2806 -91 2034 -91 
Q 1263 -91 848 271 
Q 434 634 434 1313 
Q 434 1759 690 2068 
Q 947 2378 1403 2484 
z
M 1172 3481 
Q 1172 3119 1398 2916 
Q 1625 2713 2034 2713 
Q 2441 2713 2670 2916 
Q 2900 3119 2900 3481 
Q 2900 3844 2670 4047 
Q 2441 4250 2034 4250 
Q 1625 4250 1398 4047 
Q 1172 3844 1172 3481 
z
" transform="scale(0.015625)"/>
       </defs>
       <use xlink:href="#DejaVuSans-31"/>
       <use xlink:href="#DejaVuSans-38" transform="translate(63.623047 0)"/>
       <use xlink:href="#DejaVuSans-30" transform="translate(127.246094 0)"/>
      </g>
     </g>
    </g>
    <g id="ytick_2">
     <g id="line2d_12">
      <g>
       <use xlink:href="#mb327950602" x="94.5" y="180.488163" style="stroke: #000000; stroke-width: 0.8"/>
      </g>
     </g>
     <g id="text_12">
      <!-- 200 -->
      <g transform="translate(68.4125 184.287381) scale(0.1 -0.1)">
       <use xlink:href="#DejaVuSans-32"/>
       <use xlink:href="#DejaVuSans-30" transform="translate(63.623047 0)"/>
       <use xlink:href="#DejaVuSans-30" transform="translate(127.246094 0)"/>
      </g>
     </g>
    </g>
    <g id="ytick_3">
     <g id="line2d_13">
      <g>
       <use xlink:href="#mb327950602" x="94.5" y="155.934665" style="stroke: #000000; stroke-width: 0.8"/>
      </g>
     </g>
     <g id="text_13">
      <!-- 220 -->
      <g transform="translate(68.4125 159.733883) scale(0.1 -0.1)">
       <use xlink:href="#DejaVuSans-32"/>
       <use xlink:href="#DejaVuSans-32" transform="translate(63.623047 0)"/>
       <use xlink:href="#DejaVuSans-30" transform="translate(127.246094 0)"/>
      </g>
     </g>
    </g>
    <g id="ytick_4">
     <g id="line2d_14">
      <g>
       <use xlink:href="#mb327950602" x="94.5" y="131.381167" style="stroke: #000000; stroke-width: 0.8"/>
      </g>
     </g>
     <g id="text_14">
      <!-- 240 -->
      <g transform="translate(68.4125 135.180386) scale(0.1 -0.1)">
       <defs>
        <path id="DejaVuSans-34" d="M 2419 4116 
L 825 1625 
L 2419 1625 
L 2419 4116 
z
M 2253 4666 
L 3047 4666 
L 3047 1625 
L 3713 1625 
L 3713 1100 
L 3047 1100 
L 3047 0 
L 2419 0 
L 2419 1100 
L 313 1100 
L 313 1709 
L 2253 4666 
z
" transform="scale(0.015625)"/>
       </defs>
       <use xlink:href="#DejaVuSans-32"/>
       <use xlink:href="#DejaVuSans-34" transform="translate(63.623047 0)"/>
       <use xlink:href="#DejaVuSans-30" transform="translate(127.246094 0)"/>
      </g>
     </g>
    </g>
    <g id="ytick_5">
     <g id="line2d_15">
      <g>
       <use xlink:href="#mb327950602" x="94.5" y="106.827669" style="stroke: #000000; stroke-width: 0.8"/>
      </g>
     </g>
     <g id="text_15">
      <!-- 260 -->
      <g transform="translate(68.4125 110.626888) scale(0.1 -0.1)">
       <use xlink:href="#DejaVuSans-32"/>
       <use xlink:href="#DejaVuSans-36" transform="translate(63.623047 0)"/>
       <use xlink:href="#DejaVuSans-30" transform="translate(127.246094 0)"/>
      </g>
     </g>
    </g>
    <g id="ytick_6">
     <g id="line2d_16">
      <g>
       <use xlink:href="#mb327950602" x="94.5" y="82.274171" style="stroke: #000000; stroke-width: 0.8"/>
      </g>
     </g>
     <g id="text_16">
      <!-- 280 -->
      <g transform="translate(68.4125 86.07339) scale(0.1 -0.1)">
       <use xlink:href="#DejaVuSans-32"/>
       <use xlink:href="#DejaVuSans-38" transform="translate(63.623047 0)"/>
       <use xlink:href="#DejaVuSans-30" transform="translate(127.246094 0)"/>
      </g>
     </g>
    </g>
    <g id="ytick_7">
     <g id="line2d_17">
      <g>
       <use xlink:href="#mb327950602" x="94.5" y="57.720673" style="stroke: #000000; stroke-width: 0.8"/>
      </g>
     </g>
     <g id="text_17">
      <!-- 300 -->
      <g transform="translate(68.4125 61.519892) scale(0.1 -0.1)">
       <use xlink:href="#DejaVuSans-33"/>
       <use xlink:href="#DejaVuSans-30" transform="translate(63.623047 0)"/>
       <use xlink:href="#DejaVuSans-30" transform="translate(127.246094 0)"/>
      </g>
     </g>
    </g>
    <g id="ytick_8">
     <g id="line2d_18">
      <g>
       <use xlink:href="#mb327950602" x="94.5" y="33.167176" style="stroke: #000000; stroke-width: 0.8"/>
      </g>
     </g>
     <g id="text_18">
      <!-- 320 -->
      <g transform="translate(68.4125 36.966394) scale(0.1 -0.1)">
       <use xlink:href="#DejaVuSans-33"/>
       <use xlink:href="#DejaVuSans-32" transform="translate(63.623047 0)"/>
       <use xlink:href="#DejaVuSans-30" transform="translate(127.246094 0)"/>
      </g>
     </g>
    </g>
   </g>
   <g id="line2d_19">
    <path d="M 121.131818 123.334048 
L 124.000596 119.784214 
L 124.956855 116.807717 
L 125.913114 123.431665 
L 126.869373 121.309085 
L 127.825632 115.575639 
L 130.69441 114.624105 
L 131.650669 111.049862 
L 133.563188 110.049566 
L 134.519447 114.233769 
L 137.388224 118.369154 
L 138.344483 120.540533 
L 140.257002 128.555169 
L 141.213261 129.152878 
L 144.082039 127.152305 
L 145.038298 130.555761 
L 145.994557 129.958034 
L 147.907075 137.094325 
L 150.775853 140.083036 
L 151.732112 141.449296 
L 152.688371 135.850034 
L 153.64463 147.573115 
L 154.60089 145.474926 
L 158.425926 154.428863 
L 159.382185 152.977181 
L 160.338445 153.184535 
L 161.294704 154.258076 
L 164.163481 145.621285 
L 165.11974 135.374295 
L 166.076 134.032443 
L 167.988518 138.131225 
L 170.857296 147.878086 
L 171.813555 142.034866 
L 172.769814 142.437416 
L 173.726073 141.522504 
L 174.682332 148.341611 
L 177.55111 148.011913 
L 178.507369 141.942419 
L 180.419887 131.061341 
L 181.376147 127.312152 
L 185.201183 127.470932 
L 186.157442 126.982473 
L 187.113702 125.810098 
L 188.069961 126.152028 
L 190.938738 124.259113 
L 191.894998 124.332414 
L 192.851257 132.490151 
L 193.807516 136.227088 
L 194.763775 130.682751 
L 197.632553 135.335612 
L 198.588812 137.900193 
L 199.545071 138.132199 
L 200.50133 138.63289 
L 201.457589 134.065526 
L 204.326367 148.21951 
L 205.282626 156.32841 
L 206.238885 161.04234 
L 207.195144 169.957295 
L 208.151404 165.304397 
L 211.020181 164.681567 
L 211.97644 166.28137 
L 212.9327 163.167261 
L 213.888959 164.559448 
L 214.845218 159.466946 
L 217.713995 156.462762 
L 218.670255 152.774679 
L 219.626514 155.48577 
L 220.582773 152.652523 
L 221.539032 159.918838 
L 224.40781 154.753035 
L 225.364069 153.458559 
L 226.320328 152.603686 
L 227.276587 177.883006 
L 228.232846 195.969275 
L 231.101624 204.420143 
L 232.057883 215.46 
L 233.014142 183.183105 
L 233.970402 193.478014 
L 234.926661 184.037959 
L 237.795438 178.7012 
L 238.751697 179.165287 
L 239.707957 188.776298 
L 240.664216 185.466787 
L 244.489252 190.131881 
L 245.445512 182.096189 
L 246.401771 176.161084 
L 247.35803 171.55706 
L 248.314289 170.445753 
L 251.183067 169.395497 
L 252.139326 168.088789 
L 253.095585 166.513414 
L 254.051844 165.512013 
L 255.008103 175.245124 
L 257.876881 183.134231 
L 258.83314 183.598319 
L 259.789399 186.358264 
L 260.745659 184.843958 
L 261.701918 183.573872 
L 264.570695 168.264147 
L 265.526954 165.647301 
L 266.483214 166.380972 
L 267.439473 167.457061 
L 268.395732 167.689405 
L 271.26451 170.722007 
L 272.220769 173.069811 
L 273.177028 178.902691 
L 274.133287 179.795348 
L 275.089546 187.24236 
L 278.914583 181.201602 
L 279.870842 180.944813 
L 280.827101 181.519536 
L 281.783361 180.419001 
L 284.652138 179.37961 
L 285.608397 177.459757 
L 286.564656 178.010034 
L 287.520916 180.688023 
L 288.477175 176.664941 
L 291.345952 179.68533 
L 292.302212 178.193447 
L 293.258471 182.950256 
L 294.21473 182.436658 
L 295.170989 185.799426 
L 298.039767 183.390459 
L 298.996026 186.789925 
L 299.952285 185.640459 
L 301.864803 180.235569 
L 304.733581 179.624186 
L 305.68984 181.091547 
L 306.646099 179.55079 
L 307.602358 180.235569 
L 308.558618 180.137746 
L 311.427395 175.136417 
L 312.383654 171.895918 
L 313.339913 166.246471 
L 314.296173 164.889146 
L 318.121209 169.291305 
L 319.077469 169.217947 
L 320.989987 166.28315 
L 321.946246 167.811692 
L 324.815024 170.917671 
L 325.771283 170.318483 
L 326.727542 169.034516 
L 327.683801 169.205715 
L 328.64006 167.787246 
L 331.508838 166.197559 
L 332.465097 163.849755 
L 333.421356 164.155437 
L 334.377615 164.632356 
L 335.333875 164.485603 
L 338.202652 164.277706 
L 339.158911 167.677191 
L 340.115171 170.39184 
L 341.07143 172.201619 
L 342.027689 178.548078 
L 344.896466 177.361934 
L 345.852726 177.887746 
L 346.808985 165.255991 
L 347.765244 156.965252 
L 348.721503 145.568534 
L 351.590281 147.906784 
L 352.54654 144.882987 
L 353.502799 140.377872 
L 354.459058 141.051186 
L 355.415317 142.50802 
L 358.284095 143.364953 
L 359.240354 143.768945 
L 360.196613 149.339116 
L 361.152873 150.697995 
L 362.109132 147.196754 
L 364.977909 147.931268 
L 365.934168 145.299212 
L 366.890428 143.854629 
L 367.846687 141.320508 
L 368.802946 141.834687 
L 372.627983 144.797265 
L 373.584242 134.08542 
L 374.540501 132.48174 
L 375.49676 132.591889 
L 378.365538 134.807702 
L 379.321797 139.12916 
L 380.278056 148.384228 
L 381.234315 144.417776 
L 382.190575 139.471933 
L 385.059352 136.252284 
L 386.015611 134.47718 
L 386.97187 133.448822 
L 387.92813 134.807702 
L 388.884389 125.47922 
L 391.753166 112.527077 
L 392.709425 114.547001 
L 393.665685 117.14236 
L 394.621944 111.559957 
L 395.578203 113.286075 
L 398.446981 114.547001 
L 399.40324 114.302163 
L 400.359499 113.298326 
L 401.315758 111.241649 
L 402.272017 110.15211 
L 405.140795 111.780311 
L 406.097054 112.037363 
L 407.053313 110.103105 
L 408.009572 115.024482 
L 408.965832 125.760774 
L 411.834609 122.834912 
L 412.790868 122.70026 
L 413.747127 120.778253 
L 414.703387 123.09202 
L 415.659646 117.166844 
L 418.528423 104.985932 
L 419.484683 104.337102 
L 420.440942 109.62568 
L 421.397201 108.242373 
L 422.35346 104.275883 
L 425.222238 96.942878 
L 426.178497 96.710291 
L 427.134756 95.853302 
L 428.091015 93.772159 
L 429.047274 95.033103 
L 431.916052 96.649035 
L 432.872311 95.437058 
L 433.82857 95.314658 
L 434.784829 95.767618 
L 435.741089 97.359084 
L 438.609866 95.864129 
L 439.566125 88.732278 
L 440.522385 90.913454 
L 442.434903 92.212388 
L 445.30368 98.278154 
L 446.25994 98.302657 
L 447.216199 96.930177 
L 448.172458 99.760858 
L 449.128717 93.339805 
L 451.997495 87.911218 
L 452.953754 86.624609 
L 453.910013 85.913848 
L 455.822531 84.320846 
L 458.691309 79.112893 
L 459.647568 75.326426 
L 460.603827 77.826248 
L 461.560087 82.053873 
L 462.516346 84.406642 
L 465.385123 85.49723 
L 466.341382 86.367258 
L 467.297642 84.406642 
L 468.253901 85.325675 
L 469.21016 85.019355 
L 472.078937 90.12926 
L 473.035197 89.516546 
L 473.991456 92.910898 
L 474.947715 92.481991 
L 475.903974 90.668391 
L 478.772752 93.976984 
L 480.68527 90.496873 
L 482.597788 90.99925 
L 485.466566 90.558092 
L 486.422825 91.391441 
L 487.379084 92.886396 
L 489.291603 93.927941 
L 492.16038 98.52318 
L 493.116639 104.527652 
L 494.072899 107.015222 
L 495.029158 108.595973 
L 495.985417 108.191607 
L 498.854195 107.11327 
L 499.810454 106.132943 
L 500.766713 107.468632 
L 501.722972 109.613054 
L 502.679231 112.897144 
L 506.504268 123.717397 
L 507.460527 122.553264 
L 508.416786 121.695487 
L 509.373046 122.07537 
L 512.241823 113.044159 
L 513.198082 109.539546 
L 514.154341 111.782016 
L 515.110601 109.527295 
L 516.06686 108.056768 
L 518.935637 95.153368 
L 519.891897 95.802798 
L 520.848156 87.21282 
L 521.804415 87.923506 
L 522.760674 85.215413 
L 526.585711 90.342365 
L 527.54197 88.110048 
L 528.498229 104.999532 
L 529.454488 112.297506 
L 533.279525 102.362474 
L 534.235784 101.78599 
L 535.192043 106.410114 
L 536.148303 101.503911 
L 539.01708 99.541459 
L 539.973339 92.231196 
L 540.929598 89.66772 
L 541.885858 91.237719 
L 542.842117 101.994523 
L 545.710894 101.332205 
L 546.667154 102.521928 
L 547.623413 104.030595 
L 548.579672 106.765776 
L 549.535931 110.236932 
L 552.404709 107.268677 
L 553.360968 106.103458 
L 554.317227 106.127998 
L 556.229745 119.239744 
L 559.098523 115.92806 
L 560.054782 114.198645 
L 561.011041 119.46051 
L 562.92356 121.852281 
L 565.792337 117.559371 
L 566.748596 117.375396 
L 567.704856 116.173385 
L 568.661115 115.842208 
L 569.617374 120.858785 
L 572.486151 123.520383 
L 573.442411 114.738338 
L 574.39867 112.481481 
L 575.354929 112.125782 
L 579.179966 108.519768 
L 580.136225 115.094018 
L 581.092484 108.470688 
L 582.048743 106.520488 
L 583.005002 106.532739 
L 586.830039 108.55656 
L 587.786298 99.234803 
L 588.742558 102.951247 
L 589.698817 94.573924 
L 592.567594 91.115094 
L 593.523853 99.553673 
L 594.480113 90.967854 
L 595.436372 90.648984 
L 596.392631 93.555907 
L 599.261409 97.787504 
L 600.217668 93.985189 
L 601.173927 94.647507 
L 602.130186 93.200171 
L 603.086445 82.418864 
L 605.955223 86.478755 
L 606.911482 77.463617 
L 607.867741 73.379223 
L 608.824 73.465094 
L 609.78026 66.252991 
L 612.649037 66.707263 
L 613.605296 64.104598 
L 614.561555 59.107952 
L 615.517815 59.918222 
L 616.474074 57.438295 
L 619.342851 60.372456 
L 620.29911 58.985177 
L 621.25537 54.958405 
L 622.211629 51.594588 
L 623.167888 46.892572 
L 626.992925 47.494158 
L 627.949184 44.400393 
L 628.905443 42.362448 
L 629.861702 42.914917 
L 632.73048 49.974048 
L 633.686739 39.06 
L 634.642998 45.124717 
L 635.599257 43.933871 
L 636.555517 48.709544 
L 639.424294 55.830044 
L 640.380553 69.322216 
L 641.336812 68.057712 
L 642.293072 63.085607 
L 643.249331 68.610144 
L 646.118108 62.115733 
L 647.074368 58.653718 
L 648.030627 62.692742 
L 648.986886 60.163734 
L 652.811923 61.391409 
L 653.768182 64.718435 
L 653.768182 64.718435 
" clip-path="url(#p19f6d395d4)" style="fill: none; stroke: #1f77b4; stroke-width: 1.5; stroke-linecap: square"/>
   </g>
   <g id="patch_3">
    <path d="M 94.5 224.28 
L 94.5 30.24 
" style="fill: none; stroke: #000000; stroke-width: 0.8; stroke-linejoin: miter; stroke-linecap: square"/>
   </g>
   <g id="patch_4">
    <path d="M 94.5 224.28 
L 680.4 224.28 
" style="fill: none; stroke: #000000; stroke-width: 0.8; stroke-linejoin: miter; stroke-linecap: square"/>
   </g>
  </g>
 </g>
 <defs>
  <clipPath id="p19f6d395d4">
   <rect x="94.5" y="30.24" width="585.9" height="194.04"/>
  </clipPath>
 </defs>
</svg>
