<?xml version="1.0" encoding="utf-8" standalone="no"?>
<!DOCTYPE svg PUBLIC "-//W3C//DTD SVG 1.1//EN"
  "http://www.w3.org/Graphics/SVG/1.1/DTD/svg11.dtd">
<svg xmlns:xlink="http://www.w3.org/1999/xlink" width="1166.4pt" height="252pt" viewBox="0 0 1166.4 252" xmlns="http://www.w3.org/2000/svg" version="1.1">
 <metadata>
  <rdf:RDF xmlns:dc="http://purl.org/dc/elements/1.1/" xmlns:cc="http://creativecommons.org/ns#" xmlns:rdf="http://www.w3.org/1999/02/22-rdf-syntax-ns#">
   <cc:Work>
    <dc:type rdf:resource="http://purl.org/dc/dcmitype/StillImage"/>
    <dc:date>2026-06-26T14:36:53.180230</dc:date>
    <dc:format>image/svg+xml</dc:format>
    <dc:creator>
     <cc:Agent>
      <dc:title>Matplotlib v3.10.9, https://matplotlib.org/</dc:title>
     </cc:Agent>
    </dc:creator>
   </cc:Work>
  </rdf:RDF>
 </metadata>
 <defs>
  <style type="text/css">*{stroke-linejoin: round; stroke-linecap: butt}</style>
 </defs>
 <g id="figure_1">
  <g id="patch_1">
   <path d="M 0 252 
L 1166.4 252 
L 1166.4 0 
L 0 0 
z
" style="fill: #ffffff"/>
  </g>
  <g id="axes_1">
   <g id="patch_2">
    <path d="M 145.8 224.28 
L 1049.76 224.28 
L 1049.76 30.24 
L 145.8 30.24 
z
" style="fill: #ffffff"/>
   </g>
   <g id="matplotlib.axis_1">
    <g id="xtick_1">
     <g id="line2d_1">
      <defs>
       <path id="m5afd6245b9" d="M 0 0 
L 0 3.5 
" style="stroke: #000000; stroke-width: 0.8"/>
      </defs>
      <g>
       <use xlink:href="#m5afd6245b9" x="179.526711" y="224.28" style="stroke: #000000; stroke-width: 0.8"/>
      </g>
     </g>
     <g id="text_1">
      <!-- 2020 -->
      <g transform="translate(166.801711 238.878438) scale(0.1 -0.1)">
       <defs>
        <path id="DejaVuSans-32" d="M 1228 531 
L 3431 531 
L 3431 0 
L 469 0 
L 469 531 
Q 828 903 1448 1529 
Q 2069 2156 2228 2338 
Q 2531 2678 2651 2914 
Q 2772 3150 2772 3378 
Q 2772 3750 2511 3984 
Q 2250 4219 1831 4219 
Q 1534 4219 1204 4116 
Q 875 4013 500 3803 
L 500 4441 
Q 881 4594 1212 4672 
Q 1544 4750 1819 4750 
Q 2544 4750 2975 4387 
Q 3406 4025 3406 3419 
Q 3406 3131 3298 2873 
Q 3191 2616 2906 2266 
Q 2828 2175 2409 1742 
Q 1991 1309 1228 531 
z
" transform="scale(0.015625)"/>
        <path id="DejaVuSans-30" d="M 2034 4250 
Q 1547 4250 1301 3770 
Q 1056 3291 1056 2328 
Q 1056 1369 1301 889 
Q 1547 409 2034 409 
Q 2525 409 2770 889 
Q 3016 1369 3016 2328 
Q 3016 3291 2770 3770 
Q 2525 4250 2034 4250 
z
M 2034 4750 
Q 2819 4750 3233 4129 
Q 3647 3509 3647 2328 
Q 3647 1150 3233 529 
Q 2819 -91 2034 -91 
Q 1250 -91 836 529 
Q 422 1150 422 2328 
Q 422 3509 836 4129 
Q 1250 4750 2034 4750 
z
" transform="scale(0.015625)"/>
       </defs>
       <use xlink:href="#DejaVuSans-32"/>
       <use xlink:href="#DejaVuSans-30" transform="translate(63.623047 0)"/>
       <use xlink:href="#DejaVuSans-32" transform="translate(127.246094 0)"/>
       <use xlink:href="#DejaVuSans-30" transform="translate(190.869141 0)"/>
      </g>
     </g>
    </g>
    <g id="xtick_2">
     <g id="line2d_2">
      <g>
       <use xlink:href="#m5afd6245b9" x="307.842473" y="224.28" style="stroke: #000000; stroke-width: 0.8"/>
      </g>
     </g>
     <g id="text_2">
      <!-- 2021 -->
      <g transform="translate(295.117473 238.878438) scale(0.1 -0.1)">
       <defs>
        <path id="DejaVuSans-31" d="M 794 531 
L 1825 531 
L 1825 4091 
L 703 3866 
L 703 4441 
L 1819 4666 
L 2450 4666 
L 2450 531 
L 3481 531 
L 3481 0 
L 794 0 
L 794 531 
z
" transform="scale(0.015625)"/>
       </defs>
       <use xlink:href="#DejaVuSans-32"/>
       <use xlink:href="#DejaVuSans-30" transform="translate(63.623047 0)"/>
       <use xlink:href="#DejaVuSans-32" transform="translate(127.246094 0)"/>
       <use xlink:href="#DejaVuSans-31" transform="translate(190.869141 0)"/>
      </g>
     </g>
    </g>
    <g id="xtick_3">
     <g id="line2d_3">
      <g>
       <use xlink:href="#m5afd6245b9" x="435.807645" y="224.28" style="stroke: #000000; stroke-width: 0.8"/>
      </g>
     </g>
     <g id="text_3">
      <!-- 2022 -->
      <g transform="translate(423.082645 238.878438) scale(0.1 -0.1)">
       <use xlink:href="#DejaVuSans-32"/>
       <use xlink:href="#DejaVuSans-30" transform="translate(63.623047 0)"/>
       <use xlink:href="#DejaVuSans-32" transform="translate(127.246094 0)"/>
       <use xlink:href="#DejaVuSans-32" transform="translate(190.869141 0)"/>
      </g>
     </g>
    </g>
    <g id="xtick_4">
     <g id="line2d_4">
      <g>
       <use xlink:href="#m5afd6245b9" x="563.772817" y="224.28" style="stroke: #000000; stroke-width: 0.8"/>
      </g>
     </g>
     <g id="text_4">
      <!-- 2023 -->
      <g transform="translate(551.047817 238.878438) scale(0.1 -0.1)">
       <defs>
        <path id="DejaVuSans-33" d="M 2597 2516 
Q 3050 2419 3304 2112 
Q 3559 1806 3559 1356 
Q 3559 666 3084 287 
Q 2609 -91 1734 -91 
Q 1441 -91 1130 -33 
Q 819 25 488 141 
L 488 750 
Q 750 597 1062 519 
Q 1375 441 1716 441 
Q 2309 441 2620 675 
Q 2931 909 2931 1356 
Q 2931 1769 2642 2001 
Q 2353 2234 1838 2234 
L 1294 2234 
L 1294 2753 
L 1863 2753 
Q 2328 2753 2575 2939 
Q 2822 3125 2822 3475 
Q 2822 3834 2567 4026 
Q 2313 4219 1838 4219 
Q 1578 4219 1281 4162 
Q 984 4106 628 3988 
L 628 4550 
Q 988 4650 1302 4700 
Q 1616 4750 1894 4750 
Q 2613 4750 3031 4423 
Q 3450 4097 3450 3541 
Q 3450 3153 3228 2886 
Q 3006 2619 2597 2516 
z
" transform="scale(0.015625)"/>
       </defs>
       <use xlink:href="#DejaVuSans-32"/>
       <use xlink:href="#DejaVuSans-30" transform="translate(63.623047 0)"/>
       <use xlink:href="#DejaVuSans-32" transform="translate(127.246094 0)"/>
       <use xlink:href="#DejaVuSans-33" transform="translate(190.869141 0)"/>
      </g>
     </g>
    </g>
    <g id="xtick_5">
     <g id="line2d_5">
      <g>
       <use xlink:href="#m5afd6245b9" x="691.737989" y="224.28" style="stroke: #000000; stroke-width: 0.8"/>
      </g>
     </g>
     <g id="text_5">
      <!-- 2024 -->
      <g transform="translate(679.012989 238.878438) scale(0.1 -0.1)">
       <defs>
        <path id="DejaVuSans-34" d="M 2419 4116 
L 825 1625 
L 2419 1625 
L 2419 4116 
z
M 2253 4666 
L 3047 4666 
L 3047 1625 
L 3713 1625 
L 3713 1100 
L 3047 1100 
L 3047 0 
L 2419 0 
L 2419 1100 
L 313 1100 
L 313 1709 
L 2253 4666 
z
" transform="scale(0.015625)"/>
       </defs>
       <use xlink:href="#DejaVuSans-32"/>
       <use xlink:href="#DejaVuSans-30" transform="translate(63.623047 0)"/>
       <use xlink:href="#DejaVuSans-32" transform="translate(127.246094 0)"/>
       <use xlink:href="#DejaVuSans-34" transform="translate(190.869141 0)"/>
      </g>
     </g>
    </g>
    <g id="xtick_6">
     <g id="line2d_6">
      <g>
       <use xlink:href="#m5afd6245b9" x="820.053751" y="224.28" style="stroke: #000000; stroke-width: 0.8"/>
      </g>
     </g>
     <g id="text_6">
      <!-- 2025 -->
      <g transform="translate(807.328751 238.878438) scale(0.1 -0.1)">
       <defs>
        <path id="DejaVuSans-35" d="M 691 4666 
L 3169 4666 
L 3169 4134 
L 1269 4134 
L 1269 2991 
Q 1406 3038 1543 3061 
Q 1681 3084 1819 3084 
Q 2600 3084 3056 2656 
Q 3513 2228 3513 1497 
Q 3513 744 3044 326 
Q 2575 -91 1722 -91 
Q 1428 -91 1123 -41 
Q 819 9 494 109 
L 494 744 
Q 775 591 1075 516 
Q 1375 441 1709 441 
Q 2250 441 2565 725 
Q 2881 1009 2881 1497 
Q 2881 1984 2565 2268 
Q 2250 2553 1709 2553 
Q 1456 2553 1204 2497 
Q 953 2441 691 2322 
L 691 4666 
z
" transform="scale(0.015625)"/>
       </defs>
       <use xlink:href="#DejaVuSans-32"/>
       <use xlink:href="#DejaVuSans-30" transform="translate(63.623047 0)"/>
       <use xlink:href="#DejaVuSans-32" transform="translate(127.246094 0)"/>
       <use xlink:href="#DejaVuSans-35" transform="translate(190.869141 0)"/>
      </g>
     </g>
    </g>
    <g id="xtick_7">
     <g id="line2d_7">
      <g>
       <use xlink:href="#m5afd6245b9" x="948.018923" y="224.28" style="stroke: #000000; stroke-width: 0.8"/>
      </g>
     </g>
     <g id="text_7">
      <!-- 2026 -->
      <g transform="translate(935.293923 238.878438) scale(0.1 -0.1)">
       <defs>
        <path id="DejaVuSans-36" d="M 2113 2584 
Q 1688 2584 1439 2293 
Q 1191 2003 1191 1497 
Q 1191 994 1439 701 
Q 1688 409 2113 409 
Q 2538 409 2786 701 
Q 3034 994 3034 1497 
Q 3034 2003 2786 2293 
Q 2538 2584 2113 2584 
z
M 3366 4563 
L 3366 3988 
Q 3128 4100 2886 4159 
Q 2644 4219 2406 4219 
Q 1781 4219 1451 3797 
Q 1122 3375 1075 2522 
Q 1259 2794 1537 2939 
Q 1816 3084 2150 3084 
Q 2853 3084 3261 2657 
Q 3669 2231 3669 1497 
Q 3669 778 3244 343 
Q 2819 -91 2113 -91 
Q 1303 -91 875 529 
Q 447 1150 447 2328 
Q 447 3434 972 4092 
Q 1497 4750 2381 4750 
Q 2619 4750 2861 4703 
Q 3103 4656 3366 4563 
z
" transform="scale(0.015625)"/>
       </defs>
       <use xlink:href="#DejaVuSans-32"/>
       <use xlink:href="#DejaVuSans-30" transform="translate(63.623047 0)"/>
       <use xlink:href="#DejaVuSans-32" transform="translate(127.246094 0)"/>
       <use xlink:href="#DejaVuSans-36" transform="translate(190.869141 0)"/>
      </g>
     </g>
    </g>
   </g>
   <g id="matplotlib.axis_2">
    <g id="ytick_1">
     <g id="line2d_8">
      <defs>
       <path id="m936d30de13" d="M 0 0 
L -3.5 0 
" style="stroke: #000000; stroke-width: 0.8"/>
      </defs>
      <g>
       <use xlink:href="#m936d30de13" x="145.8" y="221.492881" style="stroke: #000000; stroke-width: 0.8"/>
      </g>
     </g>
     <g id="text_8">
      <!-- 0 -->
      <g transform="translate(132.4375 225.2921) scale(0.1 -0.1)">
       <use xlink:href="#DejaVuSans-30"/>
      </g>
     </g>
    </g>
    <g id="ytick_2">
     <g id="line2d_9">
      <g>
       <use xlink:href="#m936d30de13" x="145.8" y="183.550388" style="stroke: #000000; stroke-width: 0.8"/>
      </g>
     </g>
     <g id="text_9">
      <!-- 20 -->
      <g transform="translate(126.075 187.349607) scale(0.1 -0.1)">
       <use xlink:href="#DejaVuSans-32"/>
       <use xlink:href="#DejaVuSans-30" transform="translate(63.623047 0)"/>
      </g>
     </g>
    </g>
    <g id="ytick_3">
     <g id="line2d_10">
      <g>
       <use xlink:href="#m936d30de13" x="145.8" y="145.607895" style="stroke: #000000; stroke-width: 0.8"/>
      </g>
     </g>
     <g id="text_10">
      <!-- 40 -->
      <g transform="translate(126.075 149.407113) scale(0.1 -0.1)">
       <use xlink:href="#DejaVuSans-34"/>
       <use xlink:href="#DejaVuSans-30" transform="translate(63.623047 0)"/>
      </g>
     </g>
    </g>
    <g id="ytick_4">
     <g id="line2d_11">
      <g>
       <use xlink:href="#m936d30de13" x="145.8" y="107.665402" style="stroke: #000000; stroke-width: 0.8"/>
      </g>
     </g>
     <g id="text_11">
      <!-- 60 -->
      <g transform="translate(126.075 111.46462) scale(0.1 -0.1)">
       <use xlink:href="#DejaVuSans-36"/>
       <use xlink:href="#DejaVuSans-30" transform="translate(63.623047 0)"/>
      </g>
     </g>
    </g>
    <g id="ytick_5">
     <g id="line2d_12">
      <g>
       <use xlink:href="#m936d30de13" x="145.8" y="69.722909" style="stroke: #000000; stroke-width: 0.8"/>
      </g>
     </g>
     <g id="text_12">
      <!-- 80 -->
      <g transform="translate(126.075 73.522127) scale(0.1 -0.1)">
       <defs>
        <path id="DejaVuSans-38" d="M 2034 2216 
Q 1584 2216 1326 1975 
Q 1069 1734 1069 1313 
Q 1069 891 1326 650 
Q 1584 409 2034 409 
Q 2484 409 2743 651 
Q 3003 894 3003 1313 
Q 3003 1734 2745 1975 
Q 2488 2216 2034 2216 
z
M 1403 2484 
Q 997 2584 770 2862 
Q 544 3141 544 3541 
Q 544 4100 942 4425 
Q 1341 4750 2034 4750 
Q 2731 4750 3128 4425 
Q 3525 4100 3525 3541 
Q 3525 3141 3298 2862 
Q 3072 2584 2669 2484 
Q 3125 2378 3379 2068 
Q 3634 1759 3634 1313 
Q 3634 634 3220 271 
Q 2806 -91 2034 -91 
Q 1263 -91 848 271 
Q 434 634 434 1313 
Q 434 1759 690 2068 
Q 947 2378 1403 2484 
z
M 1172 3481 
Q 1172 3119 1398 2916 
Q 1625 2713 2034 2713 
Q 2441 2713 2670 2916 
Q 2900 3119 2900 3481 
Q 2900 3844 2670 4047 
Q 2441 4250 2034 4250 
Q 1625 4250 1398 4047 
Q 1172 3844 1172 3481 
z
" transform="scale(0.015625)"/>
       </defs>
       <use xlink:href="#DejaVuSans-38"/>
       <use xlink:href="#DejaVuSans-30" transform="translate(63.623047 0)"/>
      </g>
     </g>
    </g>
    <g id="ytick_6">
     <g id="line2d_13">
      <g>
       <use xlink:href="#m936d30de13" x="145.8" y="31.780416" style="stroke: #000000; stroke-width: 0.8"/>
      </g>
     </g>
     <g id="text_13">
      <!-- 100 -->
      <g transform="translate(119.7125 35.579634) scale(0.1 -0.1)">
       <use xlink:href="#DejaVuSans-31"/>
       <use xlink:href="#DejaVuSans-30" transform="translate(63.623047 0)"/>
       <use xlink:href="#DejaVuSans-30" transform="translate(127.246094 0)"/>
      </g>
     </g>
    </g>
   </g>
   <g id="line2d_14">
    <path d="M 186.889091 87.04605 
L 187.23968 85.084189 
L 187.59027 78.446424 
L 188.642038 108.588409 
L 188.992628 93.602919 
L 189.343217 91.605706 
L 189.693807 100.30598 
L 190.044397 127.83402 
L 191.096165 139.940298 
L 191.446755 117.644878 
L 191.797344 112.182989 
L 192.147934 112.353065 
L 192.498523 123.727063 
L 193.550292 118.445215 
L 193.900881 122.876556 
L 194.251471 115.332796 
L 194.60206 117.341633 
L 194.95265 102.360859 
L 196.355008 123.512245 
L 196.705597 126.561744 
L 197.056187 130.827613 
L 197.406776 119.446544 
L 198.458545 139.774221 
L 198.809134 167.121861 
L 199.159724 163.422786 
L 199.510313 181.724193 
L 199.860903 179.698314 
L 200.912671 146.728231 
L 201.263261 151.640513 
L 201.61385 145.853038 
L 201.96444 150.271201 
L 202.315029 152.441323 
L 203.366798 160.280584 
L 203.717388 148.845241 
L 204.067977 151.659965 
L 204.418567 158.990858 
L 204.769156 135.992238 
L 205.820925 145.507558 
L 206.171514 142.585646 
L 206.522104 138.021444 
L 206.872693 138.661997 
L 207.223283 157.254928 
L 208.275051 155.847803 
L 208.625641 150.721588 
L 208.97623 147.891253 
L 209.32682 139.791943 
L 209.677409 135.024967 
L 210.729178 141.388633 
L 211.079767 137.364554 
L 211.430357 130.647908 
L 211.780946 147.901769 
L 212.131536 127.29573 
L 213.533894 116.748038 
L 213.884483 110.753931 
L 214.235073 94.260325 
L 215.637431 85.936365 
L 215.98802 90.419751 
L 216.33861 91.970801 
L 216.6892 98.667713 
L 217.039789 89.269552 
L 218.091558 102.738851 
L 218.442147 112.701157 
L 218.792737 89.625948 
L 219.143326 93.90887 
L 219.493916 83.627453 
L 220.545684 98.903239 
L 220.896274 101.529527 
L 221.246863 99.190796 
L 221.597453 95.650183 
L 221.948042 107.515493 
L 222.999811 118.208935 
L 223.3504 108.983185 
L 223.70099 108.106846 
L 224.051579 98.494367 
L 224.402169 81.75375 
L 225.453937 60.651661 
L 225.804527 73.180818 
L 226.505706 83.882002 
L 226.856295 88.092725 
L 227.908064 72.404177 
L 228.258653 83.542775 
L 228.609243 83.510047 
L 228.959832 77.682341 
L 229.310422 79.438341 
L 231.413959 95.317292 
L 231.764549 107.895692 
L 232.816317 109.810244 
L 233.517496 78.561391 
L 233.868086 92.37203 
L 234.218675 73.824737 
L 235.270444 79.76541 
L 235.621033 63.227416 
L 235.971623 61.452846 
L 236.322212 98.166377 
L 236.672802 97.278731 
L 237.72457 89.100018 
L 238.07516 83.133585 
L 238.425749 84.141143 
L 238.776339 83.468916 
L 239.126928 90.097065 
L 240.178697 84.513938 
L 240.529286 80.903764 
L 240.879876 86.665045 
L 241.230465 89.500696 
L 241.581055 106.371262 
L 242.632823 108.300391 
L 242.983413 113.475547 
L 243.334002 88.382511 
L 243.684592 90.830611 
L 245.08695 86.316451 
L 245.43754 96.406617 
L 245.788129 87.866414 
L 246.138719 86.735149 
L 246.489308 82.521256 
L 247.541077 93.341562 
L 247.891666 94.62457 
L 248.242256 78.283459 
L 248.592845 93.336037 
L 248.943435 66.656243 
L 249.995203 66.677077 
L 250.345793 84.703694 
L 250.696382 81.827515 
L 251.046972 116.867504 
L 251.397561 131.842584 
L 252.44933 117.682928 
L 252.799919 138.483075 
L 253.150509 130.36803 
L 253.501098 125.295398 
L 253.851688 91.027444 
L 254.903456 88.846862 
L 255.254046 88.732278 
L 255.955225 75.686122 
L 256.305814 89.710294 
L 257.357583 81.582073 
L 257.708173 94.782294 
L 258.058762 72.727757 
L 258.409352 69.636929 
L 258.759941 72.415306 
L 259.81171 66.946613 
L 260.512889 68.937054 
L 260.863478 80.111611 
L 261.214068 74.268722 
L 262.265836 73.155992 
L 262.616426 78.864601 
L 262.967015 82.511712 
L 263.317605 76.886224 
L 263.668194 80.957669 
L 264.719963 54.795933 
L 265.070552 53.535004 
L 265.421142 71.603256 
L 265.771731 111.98529 
L 266.122321 110.963973 
L 267.524679 132.337437 
L 267.875268 123.576703 
L 268.225858 135.492965 
L 268.576447 151.791965 
L 269.628216 147.16024 
L 269.978805 145.114338 
L 270.329395 154.285257 
L 270.679984 154.660889 
L 271.030574 158.822654 
L 272.082343 161.249361 
L 272.432932 170.342838 
L 272.783522 172.27897 
L 273.134111 155.897874 
L 273.484701 144.925282 
L 274.536469 121.50539 
L 274.887059 135.164101 
L 275.237648 120.129706 
L 275.588238 112.996227 
L 275.938827 133.219186 
L 276.990596 124.176825 
L 277.341185 123.992497 
L 278.042364 103.746247 
L 278.392954 106.496186 
L 279.795312 90.562507 
L 280.145901 92.223228 
L 280.84708 114.285322 
L 281.898849 121.260929 
L 282.249438 121.773634 
L 282.600028 126.405499 
L 282.950617 118.05339 
L 283.301207 131.691022 
L 284.352975 119.18844 
L 284.703565 120.553023 
L 285.054155 138.972178 
L 285.404744 131.667595 
L 285.755334 175.543941 
L 286.807102 170.066931 
L 287.157692 162.403187 
L 287.858871 126.609436 
L 288.20946 118.003269 
L 289.261229 129.491696 
L 289.611818 128.674454 
L 289.962408 115.937561 
L 290.312997 114.625672 
L 290.663587 114.529614 
L 291.715355 115.763307 
L 292.065945 99.730927 
L 292.416534 116.340303 
L 292.767124 81.522022 
L 294.169482 112.40152 
L 294.520071 124.731267 
L 294.870661 141.70496 
L 295.57184 137.691004 
L 296.623608 112.337584 
L 296.974198 96.758882 
L 297.324787 107.997718 
L 297.675377 107.121099 
L 298.025966 111.526391 
L 299.077735 109.618712 
L 299.428325 101.658528 
L 299.778914 109.018519 
L 300.480093 103.256942 
L 301.531862 84.162934 
L 301.882451 73.029576 
L 302.233041 75.143263 
L 302.58363 74.493758 
L 302.93422 93.23281 
L 303.985988 99.847453 
L 304.336578 90.025391 
L 304.687167 94.374337 
L 305.037757 88.059052 
L 306.440115 81.377059 
L 306.790704 91.488668 
L 307.141294 84.470487 
L 307.491883 92.720982 
L 308.894241 103.645191 
L 309.244831 97.306007 
L 309.59542 130.948239 
L 309.94601 117.534355 
L 310.296599 116.903929 
L 311.348368 120.102597 
L 312.049547 129.692566 
L 312.400137 132.753539 
L 312.750726 140.712194 
L 314.153084 156.104694 
L 314.854263 117.998399 
L 315.204853 109.713055 
L 316.256621 91.362543 
L 316.607211 93.679641 
L 316.9578 80.317291 
L 317.30839 108.522762 
L 317.658979 126.871805 
L 318.710748 112.817915 
L 319.061337 110.367339 
L 319.411927 118.382362 
L 319.762516 104.610913 
L 320.113106 100.1438 
L 321.164874 101.209173 
L 321.515464 113.974155 
L 321.866053 131.10579 
L 322.216643 140.719463 
L 322.567232 158.951005 
L 323.96959 166.056502 
L 324.32018 168.862361 
L 324.670769 159.209248 
L 325.021359 137.906745 
L 326.423717 176.69724 
L 326.774307 175.224852 
L 327.124896 215.46 
L 327.475486 212.417006 
L 328.527254 163.417656 
L 329.579023 175.032741 
L 329.929612 170.092767 
L 330.981381 174.534235 
L 331.33197 152.535436 
L 331.68256 152.496793 
L 332.383739 140.273756 
L 333.435507 131.380769 
L 333.786097 126.094053 
L 334.136686 116.392904 
L 334.487276 128.418047 
L 334.837865 149.139043 
L 336.240223 125.186621 
L 336.590813 126.755519 
L 336.941402 129.165708 
L 337.291992 109.399783 
L 338.34376 125.351429 
L 338.69435 126.973593 
L 339.044939 125.845889 
L 339.395529 118.408162 
L 340.797887 118.637617 
L 341.148477 123.797145 
L 341.499066 113.256157 
L 341.849656 81.129711 
L 342.200245 72.007032 
L 343.252014 91.093809 
L 343.602603 78.21079 
L 343.953193 77.90215 
L 344.303782 74.298037 
L 344.654372 77.362811 
L 345.70614 76.466546 
L 346.05673 77.822772 
L 346.407319 81.419495 
L 346.757909 92.05207 
L 347.108498 93.357979 
L 348.160267 93.127769 
L 348.510856 99.552732 
L 349.212035 124.181071 
L 349.562625 125.526592 
L 350.614393 137.377837 
L 350.964983 147.5269 
L 351.315572 162.858231 
L 351.666162 149.851522 
L 352.016751 149.778526 
L 353.06852 155.73093 
L 353.769699 165.551342 
L 354.120289 166.639417 
L 354.470878 154.805889 
L 355.522647 157.115127 
L 355.873236 158.678714 
L 356.223826 158.828388 
L 356.574415 141.054297 
L 356.925005 151.153808 
L 357.976773 128.777347 
L 358.327363 130.590651 
L 359.028542 147.08449 
L 359.379131 137.165765 
L 360.781489 134.537354 
L 361.132079 114.014822 
L 361.482668 134.842709 
L 361.833258 135.65951 
L 362.885026 128.941081 
L 363.235616 114.399227 
L 363.586205 111.082182 
L 363.936795 135.207766 
L 364.287384 112.228121 
L 365.339153 103.897821 
L 365.689742 109.00383 
L 366.040332 106.042661 
L 366.390922 86.197062 
L 366.741511 91.802138 
L 368.143869 80.501355 
L 368.494459 70.276905 
L 368.845048 79.208186 
L 369.195638 82.023588 
L 370.247406 79.442913 
L 370.597996 76.250828 
L 370.948585 65.84549 
L 371.299175 67.825443 
L 371.649764 68.844724 
L 373.402712 53.95686 
L 373.753301 67.959786 
L 374.103891 53.68952 
L 375.155659 61.69551 
L 375.506249 62.630363 
L 375.856838 55.182348 
L 376.207428 58.207392 
L 376.558017 71.094841 
L 377.609786 97.476485 
L 377.960375 92.264281 
L 378.310965 97.224899 
L 378.661554 94.705018 
L 379.012144 96.842536 
L 380.063913 100.961057 
L 380.414502 118.427308 
L 380.765092 120.259272 
L 381.115681 124.598801 
L 381.466271 121.323498 
L 382.518039 127.121257 
L 382.868629 134.421821 
L 383.219218 133.371194 
L 383.569808 123.388946 
L 383.920397 103.93214 
L 384.972166 125.448378 
L 385.322755 123.443666 
L 385.673345 132.702962 
L 386.023934 122.458746 
L 386.374524 124.073122 
L 387.776882 80.937712 
L 388.127471 120.4737 
L 388.478061 119.740717 
L 388.82865 109.19681 
L 389.880419 110.792544 
L 390.231008 108.446899 
L 390.581598 117.747653 
L 390.932187 118.509132 
L 391.282777 112.91382 
L 392.334545 93.272733 
L 393.035724 109.518875 
L 393.386314 106.074652 
L 393.736904 111.262267 
L 395.139262 97.387636 
L 395.489851 82.558384 
L 395.840441 90.840836 
L 396.19103 123.439238 
L 397.242799 127.32048 
L 397.593388 132.68091 
L 397.943978 123.896153 
L 398.294567 121.392443 
L 398.645157 136.559941 
L 399.696925 168.841408 
L 400.047515 162.723969 
L 400.398104 153.158334 
L 400.748694 153.978966 
L 401.099283 156.941359 
L 402.151052 174.874906 
L 402.501641 178.505499 
L 403.55341 158.073276 
L 404.605178 163.833693 
L 405.306357 152.807836 
L 406.007536 126.822342 
L 407.059305 129.571025 
L 407.409895 148.395185 
L 407.760484 156.924948 
L 408.461663 129.050185 
L 409.513432 103.568748 
L 409.864021 99.022626 
L 410.214611 88.965633 
L 410.5652 91.823436 
L 410.91579 69.626838 
L 411.967558 75.507427 
L 412.318148 76.174717 
L 412.668737 85.87876 
L 413.019327 70.258856 
L 413.369916 91.647769 
L 414.421685 88.417156 
L 414.772274 81.035725 
L 415.122864 84.904321 
L 415.473453 92.528393 
L 415.824043 97.009404 
L 416.875811 114.194674 
L 417.226401 114.938189 
L 417.57699 134.124679 
L 417.92758 130.155574 
L 418.278169 118.531084 
L 419.329938 121.816845 
L 419.680527 114.297231 
L 420.031117 120.251412 
L 420.381706 84.331856 
L 420.732296 71.804328 
L 421.784065 72.991663 
L 422.134654 75.359573 
L 422.485244 70.006034 
L 423.186423 104.171678 
L 424.238191 90.800395 
L 424.93937 70.09857 
L 425.28996 75.070928 
L 425.640549 87.916431 
L 426.692318 81.922788 
L 427.042907 75.400027 
L 427.393497 73.813658 
L 427.744086 81.287274 
L 428.094676 78.339737 
L 429.497034 97.019854 
L 429.847623 90.698139 
L 430.198213 95.932257 
L 430.548802 103.872884 
L 431.600571 116.526121 
L 432.652339 96.076164 
L 434.054697 95.268753 
L 434.405287 107.674671 
L 434.755877 115.540837 
L 435.106466 117.409472 
L 435.457056 132.014458 
L 436.508824 109.087299 
L 436.859414 111.99512 
L 437.210003 138.644707 
L 437.560593 127.445828 
L 437.911182 123.328138 
L 438.962951 118.417683 
L 439.31354 119.507775 
L 439.66413 127.044032 
L 440.365309 154.029381 
L 441.767667 159.526266 
L 442.118256 167.06973 
L 442.468846 168.005966 
L 442.819435 170.398825 
L 443.871204 192.850668 
L 444.221793 192.382271 
L 444.922972 182.759668 
L 445.273562 132.00027 
L 446.32533 119.991363 
L 446.67592 127.938318 
L 447.026509 125.797207 
L 447.377099 124.691867 
L 447.727688 127.919674 
L 448.779457 120.377205 
L 449.130047 99.731495 
L 449.480636 89.740904 
L 450.181815 107.35758 
L 451.233584 100.646131 
L 451.584173 93.230311 
L 451.934763 92.446375 
L 452.285352 130.520656 
L 452.635942 151.896148 
L 454.0383 158.40156 
L 454.388889 171.206955 
L 454.739479 155.365247 
L 455.090068 147.28374 
L 456.141837 144.786426 
L 456.492426 160.137529 
L 457.193605 144.653378 
L 457.544195 143.598565 
L 458.595963 153.192038 
L 458.946553 171.897383 
L 459.297142 150.958728 
L 459.647732 152.361976 
L 459.998321 156.142696 
L 461.05009 157.920469 
L 461.400679 137.948479 
L 461.751269 133.491417 
L 462.101859 136.075451 
L 462.452448 129.008069 
L 463.504217 122.049503 
L 463.854806 121.889629 
L 464.205396 118.468612 
L 464.906575 93.242058 
L 465.958343 86.408007 
L 466.308933 89.29589 
L 466.659522 77.852753 
L 467.010112 75.393562 
L 467.360701 58.520639 
L 468.41247 58.799088 
L 469.113649 95.11151 
L 469.464238 101.407574 
L 469.814828 112.376487 
L 470.866596 135.671984 
L 471.217186 134.02246 
L 471.567775 137.64283 
L 471.918365 151.421668 
L 473.320723 154.828465 
L 473.671312 158.512775 
L 474.021902 156.588341 
L 474.372491 151.67286 
L 474.723081 160.222643 
L 476.125439 176.096389 
L 476.476029 171.843142 
L 476.826618 147.427823 
L 477.177208 154.258641 
L 478.228976 145.735479 
L 478.579566 146.895847 
L 478.930155 136.505336 
L 479.280745 144.114552 
L 479.631334 141.970181 
L 480.683103 155.511809 
L 481.033692 149.451269 
L 481.384282 158.234229 
L 481.734871 157.49397 
L 482.085461 150.457479 
L 483.137229 144.88181 
L 483.487819 137.711419 
L 483.838408 161.085204 
L 484.188998 158.542726 
L 484.539587 158.690654 
L 485.591356 150.703946 
L 485.941945 166.94179 
L 486.292535 156.585422 
L 486.643124 150.680253 
L 486.993714 130.895498 
L 488.396072 136.930052 
L 489.097251 107.523955 
L 489.447841 130.348561 
L 490.499609 125.325368 
L 490.850199 127.82594 
L 491.200788 107.06228 
L 491.551378 112.870185 
L 491.901967 127.682402 
L 492.953736 152.335898 
L 493.654915 138.10765 
L 494.356094 169.683763 
L 495.758452 155.016845 
L 496.109041 155.609564 
L 496.459631 154.43182 
L 496.81022 135.094494 
L 497.861989 137.011363 
L 498.212578 151.725339 
L 498.913757 140.386653 
L 499.264347 122.088509 
L 500.666705 100.342138 
L 501.017294 99.412409 
L 501.367884 97.991038 
L 501.718473 75.472222 
L 502.770242 87.36673 
L 503.120832 93.767959 
L 503.471421 93.099803 
L 503.822011 92.97188 
L 504.1726 96.794947 
L 505.224369 109.616052 
L 505.574958 83.560544 
L 505.925548 83.130635 
L 506.276137 67.553422 
L 506.626727 76.981217 
L 507.678495 87.305819 
L 508.029085 96.65272 
L 508.379674 92.745382 
L 508.730264 93.017829 
L 509.080853 74.477123 
L 510.132622 80.375482 
L 510.483211 85.176086 
L 510.833801 80.564851 
L 511.18439 84.224884 
L 511.53498 71.957582 
L 512.586748 79.974548 
L 512.937338 83.570272 
L 513.638517 77.373529 
L 513.989106 66.636977 
L 515.040875 58.507245 
L 515.391464 65.005325 
L 515.742054 63.791206 
L 516.443233 84.737551 
L 517.495002 97.825672 
L 517.845591 120.278741 
L 518.196181 117.308942 
L 518.54677 106.549391 
L 518.89736 130.866862 
L 519.949128 137.748254 
L 520.299718 161.175477 
L 520.650307 163.109971 
L 521.000897 177.365268 
L 521.351486 186.585898 
L 523.104434 188.44444 
L 523.455023 189.67133 
L 523.805613 171.511849 
L 524.857381 138.900916 
L 525.207971 157.412624 
L 525.55856 153.949092 
L 525.90915 165.70292 
L 526.259739 158.76928 
L 527.311508 143.131354 
L 527.662097 131.447729 
L 528.363276 138.608263 
L 528.713866 138.92786 
L 529.765635 135.425647 
L 530.466814 137.441333 
L 531.167993 181.996747 
L 532.570351 148.439037 
L 532.92094 141.765801 
L 533.27153 140.246535 
L 533.622119 162.284959 
L 534.673888 169.819558 
L 535.024477 167.210508 
L 535.375067 166.669575 
L 535.725656 145.992725 
L 536.076246 155.491702 
L 537.128014 146.899487 
L 537.478604 140.01177 
L 538.179783 111.314306 
L 538.530372 112.240898 
L 539.582141 116.145786 
L 539.93273 109.500184 
L 540.28332 115.982288 
L 540.633909 113.53863 
L 540.984499 94.141156 
L 542.036267 96.817458 
L 542.386857 102.172379 
L 542.737446 122.663163 
L 543.088036 125.692582 
L 543.438626 134.392545 
L 544.490394 136.18751 
L 544.840984 135.122004 
L 545.191573 142.275683 
L 545.542163 126.890418 
L 545.892752 125.837056 
L 546.944521 132.912525 
L 547.6457 119.071335 
L 547.996289 136.892942 
L 548.346879 130.672264 
L 549.398647 131.933366 
L 550.099826 92.108294 
L 550.801005 101.563409 
L 551.852774 114.11831 
L 552.203363 122.920831 
L 552.553953 98.809935 
L 552.904542 122.515006 
L 553.255132 132.455471 
L 554.3069 131.756507 
L 554.65749 147.427343 
L 555.008079 149.031116 
L 555.358669 149.812392 
L 555.709258 152.92001 
L 556.761027 137.070811 
L 557.111617 141.137517 
L 557.812796 157.287549 
L 558.163385 153.702793 
L 559.215154 151.840081 
L 559.565743 183.305772 
L 559.916333 168.412504 
L 560.266922 172.935685 
L 560.617512 171.67137 
L 562.01987 168.448869 
L 562.370459 171.878744 
L 562.721049 164.006073 
L 563.071638 161.865828 
L 564.473996 178.585666 
L 565.175175 176.147096 
L 565.525765 146.569729 
L 566.577533 139.85825 
L 567.278712 123.153683 
L 567.629302 133.231908 
L 567.979891 117.900336 
L 569.382249 112.951701 
L 569.732839 108.558835 
L 570.083428 88.979614 
L 570.434018 91.469871 
L 571.485787 84.553407 
L 571.836376 50.524875 
L 572.186966 57.087452 
L 572.537555 44.60121 
L 572.888145 46.351019 
L 573.939913 70.388284 
L 574.290503 69.16359 
L 574.641092 72.080706 
L 574.991682 63.290019 
L 575.342271 60.704875 
L 576.39404 76.694013 
L 576.744629 69.333962 
L 577.445808 89.605679 
L 577.796398 95.058407 
L 578.848166 92.228996 
L 579.549345 92.088749 
L 579.899935 102.518476 
L 580.250524 95.447717 
L 581.652882 113.761376 
L 582.003472 115.588393 
L 582.354061 130.83478 
L 582.704651 154.298246 
L 583.756419 140.577733 
L 584.107009 156.913425 
L 584.457599 155.01771 
L 584.808188 148.135171 
L 585.158778 126.562474 
L 586.210546 126.710709 
L 586.561136 132.224658 
L 586.911725 135.509098 
L 587.262315 137.614152 
L 587.612904 140.411079 
L 589.015262 113.93391 
L 589.365852 114.203872 
L 589.716441 95.17867 
L 590.067031 101.946163 
L 591.118799 94.061537 
L 591.469389 80.73628 
L 592.170568 97.478515 
L 592.521157 101.493216 
L 593.572926 100.190937 
L 593.923515 107.193581 
L 594.624694 71.070122 
L 594.975284 70.145855 
L 596.027052 71.540646 
L 596.377642 75.659743 
L 596.728231 93.334104 
L 597.078821 86.056281 
L 598.481179 107.382595 
L 598.831769 120.130292 
L 599.182358 116.579509 
L 599.532948 102.232564 
L 599.883537 107.665568 
L 600.935306 97.78566 
L 601.285895 90.974707 
L 601.636485 96.371169 
L 601.987074 107.157022 
L 602.337664 126.066717 
L 603.389432 130.826002 
L 603.740022 135.440462 
L 604.090611 126.636648 
L 604.79179 91.359761 
L 605.843559 83.724643 
L 606.194148 86.161943 
L 606.544738 115.003068 
L 606.895327 123.346236 
L 607.245917 94.320432 
L 608.297685 98.029459 
L 608.648275 110.191755 
L 609.349454 91.019866 
L 609.700043 96.931295 
L 610.751812 91.149859 
L 611.102401 91.092403 
L 611.452991 103.81559 
L 611.803581 99.853481 
L 612.15417 98.9262 
L 613.205939 98.37789 
L 613.556528 107.331984 
L 613.907118 96.787837 
L 614.257707 129.056961 
L 614.608297 113.531961 
L 616.010655 92.115924 
L 616.361244 100.217961 
L 617.062423 78.981077 
L 618.464781 88.842577 
L 618.815371 100.600931 
L 619.51655 98.219245 
L 620.568318 83.788475 
L 620.918908 68.191012 
L 621.269497 67.516418 
L 621.620087 65.917593 
L 621.970676 79.233766 
L 623.373034 84.141702 
L 623.723624 91.684075 
L 624.074213 91.033453 
L 624.424803 96.221236 
L 625.476572 96.500996 
L 626.177751 72.775964 
L 626.52834 78.351768 
L 626.87893 69.792433 
L 627.930698 86.302708 
L 628.631877 90.479568 
L 628.982467 90.929249 
L 629.333056 104.432353 
L 630.384825 109.913334 
L 630.735414 113.009504 
L 631.086004 101.597474 
L 631.436593 109.625907 
L 631.787183 107.200064 
L 632.838951 88.093227 
L 633.189541 98.224887 
L 633.54013 97.599164 
L 633.89072 110.446097 
L 634.241309 137.608758 
L 635.293078 125.004332 
L 635.643667 113.542887 
L 635.994257 111.61821 
L 636.344846 112.579538 
L 636.695436 87.899622 
L 637.747204 81.95726 
L 638.097794 93.896315 
L 638.448383 116.547442 
L 638.798973 124.409044 
L 639.149563 169.884161 
L 640.551921 177.06398 
L 640.90251 176.501212 
L 641.2531 174.911395 
L 641.603689 178.931204 
L 642.655458 174.63906 
L 643.006047 182.32245 
L 643.356637 181.769208 
L 643.707226 199.276365 
L 644.057816 200.048299 
L 645.109584 191.459533 
L 645.460174 179.833549 
L 645.810763 158.241295 
L 646.161353 147.022225 
L 646.511942 126.631896 
L 647.563711 124.206571 
L 647.9143 104.967026 
L 648.26489 95.601897 
L 648.615479 95.266933 
L 648.966069 95.433926 
L 650.368427 86.050164 
L 650.719016 109.225243 
L 651.069606 117.588211 
L 651.420195 117.290355 
L 652.471964 117.680183 
L 652.822554 128.901428 
L 653.173143 144.280124 
L 653.523733 128.425329 
L 653.874322 137.163257 
L 654.926091 132.86314 
L 655.27668 142.093926 
L 655.62727 163.796712 
L 656.328449 170.603168 
L 657.380217 166.145448 
L 657.730807 161.224404 
L 658.081396 152.440583 
L 658.431986 154.12079 
L 658.782575 157.326477 
L 659.834344 136.441524 
L 660.184933 133.81148 
L 660.535523 134.975442 
L 660.886112 127.028835 
L 661.236702 128.549694 
L 662.28847 126.950138 
L 662.989649 100.21017 
L 663.340239 100.048011 
L 663.690828 114.522632 
L 664.742597 90.409497 
L 665.093186 90.704869 
L 665.443776 100.638414 
L 665.794365 105.020664 
L 666.144955 131.052007 
L 667.196724 123.376691 
L 667.547313 127.891042 
L 667.897903 147.020361 
L 668.248492 178.572412 
L 668.599082 179.87294 
L 669.65085 163.826254 
L 670.00144 170.050202 
L 670.352029 155.670948 
L 670.702619 131.746691 
L 671.053208 134.634734 
L 672.104977 118.91756 
L 672.455566 105.502561 
L 672.806156 101.036278 
L 673.507335 82.827484 
L 674.559103 90.793399 
L 674.909693 75.900893 
L 675.260282 52.587782 
L 675.610872 52.308616 
L 675.961461 54.094194 
L 677.01323 53.033515 
L 677.363819 61.356588 
L 677.714409 65.356504 
L 678.415588 68.338894 
L 679.467357 74.534178 
L 679.817946 79.314519 
L 680.168536 90.496305 
L 680.519125 85.036923 
L 680.869715 95.61607 
L 681.921483 97.377478 
L 682.272073 91.964577 
L 682.622662 102.431222 
L 682.973252 101.40083 
L 683.323841 95.869824 
L 684.37561 118.147346 
L 685.076789 98.762686 
L 685.427378 90.623272 
L 685.777968 92.784333 
L 686.829736 103.866201 
L 687.180326 95.266534 
L 687.530915 107.680963 
L 687.881505 112.620146 
L 688.232094 109.0955 
L 689.634452 128.473067 
L 689.985042 122.28939 
L 690.335631 130.581668 
L 690.686221 145.256736 
L 692.088579 161.423245 
L 692.439168 175.225856 
L 692.789758 204.670372 
L 693.140348 206.572604 
L 694.192116 174.24298 
L 694.542706 171.616804 
L 694.893295 171.6169 
L 695.594474 165.57464 
L 697.347422 169.497426 
L 697.698011 141.523677 
L 698.048601 132.758437 
L 699.100369 122.676961 
L 699.450959 93.096052 
L 699.801548 89.626096 
L 700.152138 78.700497 
L 700.502727 84.461911 
L 701.554496 99.528717 
L 702.255675 132.822279 
L 702.606264 122.526504 
L 702.956854 126.857996 
L 704.008622 113.627237 
L 704.359212 105.84367 
L 705.060391 140.283607 
L 705.41098 148.353995 
L 706.813339 165.001589 
L 707.163928 166.358213 
L 707.514518 162.68459 
L 707.865107 164.910966 
L 709.267465 156.524915 
L 709.618055 136.97405 
L 709.968644 139.564446 
L 710.319234 143.533947 
L 711.371002 161.897046 
L 711.721592 163.046239 
L 712.072181 167.816724 
L 712.422771 166.527632 
L 712.77336 175.748179 
L 713.825129 182.095911 
L 714.175718 186.911509 
L 714.526308 187.07273 
L 714.876897 186.822939 
L 715.227487 173.180619 
L 716.279255 160.238699 
L 716.629845 161.701351 
L 716.980434 177.606332 
L 717.331024 163.255873 
L 717.681613 160.845709 
L 718.733382 162.894491 
L 719.434561 134.115775 
L 719.78515 150.765426 
L 720.13574 135.879789 
L 721.187509 123.909407 
L 721.538098 124.444475 
L 721.888688 112.543915 
L 722.239277 124.192737 
L 723.641635 135.676917 
L 723.992225 140.873205 
L 724.342814 131.657652 
L 724.693404 141.365445 
L 725.043993 137.199399 
L 726.095762 144.927618 
L 726.446351 149.852756 
L 726.796941 167.16185 
L 727.14753 112.957957 
L 727.49812 111.088278 
L 728.549888 120.508225 
L 728.900478 127.658028 
L 729.251067 144.353339 
L 729.601657 141.918289 
L 729.952246 143.586006 
L 731.004015 136.873003 
L 731.354604 135.936252 
L 731.705194 125.990051 
L 732.055783 125.638133 
L 732.406373 123.847697 
L 733.458141 115.244361 
L 733.808731 119.344293 
L 734.159321 146.847251 
L 734.50991 138.087077 
L 734.8605 98.193126 
L 735.912268 92.247336 
L 736.613447 81.093818 
L 736.964037 69.500954 
L 737.314626 76.33469 
L 738.366395 73.574366 
L 738.716984 74.760346 
L 739.067574 73.039838 
L 739.418163 70.401754 
L 739.768753 75.61181 
L 741.171111 50.896479 
L 741.5217 62.748217 
L 741.87229 109.34616 
L 742.222879 89.911776 
L 743.625237 91.7634 
L 743.975827 91.875038 
L 744.326416 94.306812 
L 744.677006 83.306152 
L 745.728774 87.303546 
L 746.429953 92.501827 
L 746.780543 102.66434 
L 747.131132 94.530135 
L 748.182901 118.183343 
L 748.533491 87.705202 
L 749.23467 57.760239 
L 749.585259 67.863909 
L 750.637028 64.148699 
L 751.688796 88.870775 
L 752.039386 96.151387 
L 753.091154 97.722753 
L 753.441744 96.865094 
L 753.792333 93.371859 
L 754.142923 88.670871 
L 754.493512 100.635922 
L 755.545281 83.901535 
L 755.89587 96.962901 
L 756.24646 105.07148 
L 756.947639 98.587721 
L 757.999407 90.864255 
L 758.349997 96.118946 
L 758.700586 81.468094 
L 759.051176 84.265014 
L 759.401765 73.08685 
L 760.453534 70.076103 
L 760.804123 70.524802 
L 761.154713 93.900847 
L 761.505303 107.178936 
L 761.855892 98.277115 
L 762.907661 109.542994 
L 763.25825 114.659531 
L 763.959429 148.167271 
L 764.310019 151.262407 
L 765.361787 153.115274 
L 765.712377 166.597196 
L 766.062966 143.1532 
L 766.413556 162.428269 
L 766.764145 172.733451 
L 767.815914 187.090164 
L 768.166503 183.382796 
L 768.867682 154.505666 
L 769.218272 144.934824 
L 770.27004 143.561032 
L 770.62063 119.14049 
L 770.971219 115.192049 
L 771.321809 109.871887 
L 771.672398 107.857831 
L 772.724167 109.363902 
L 773.074756 114.834721 
L 773.425346 103.544584 
L 773.775935 113.072231 
L 774.126525 62.068326 
L 775.178294 48.371663 
L 775.528883 49.639428 
L 775.879473 65.366255 
L 776.230062 64.773558 
L 776.580652 73.329276 
L 778.333599 130.023106 
L 778.684189 136.329246 
L 779.034778 148.0849 
L 780.086547 147.121582 
L 780.437136 152.758716 
L 780.787726 140.451297 
L 781.138315 133.616011 
L 781.488905 145.451888 
L 782.540673 163.798722 
L 782.891263 165.633615 
L 783.592442 129.160351 
L 783.943031 128.838773 
L 784.9948 114.922127 
L 785.345389 105.26619 
L 785.695979 113.314756 
L 786.046568 103.938802 
L 786.397158 103.478035 
L 787.448926 89.119037 
L 787.799516 117.493587 
L 788.150105 116.436224 
L 788.500695 118.750546 
L 788.851285 96.585443 
L 789.903053 114.314354 
L 790.253643 113.922361 
L 790.604232 124.738968 
L 790.954822 124.245334 
L 791.305411 123.539814 
L 792.35718 116.26124 
L 792.707769 107.705896 
L 793.058359 116.113632 
L 793.408948 115.894411 
L 793.759538 121.387297 
L 794.811306 95.0384 
L 795.161896 98.74499 
L 795.512485 112.790393 
L 795.863075 116.096981 
L 796.213664 95.550921 
L 797.265433 100.385172 
L 798.317201 131.849814 
L 798.667791 153.994694 
L 799.719559 167.565844 
L 800.070149 156.108951 
L 800.420738 159.55892 
L 800.771328 151.166204 
L 801.121917 158.187966 
L 802.173686 162.649251 
L 802.524276 150.588884 
L 802.874865 145.924778 
L 803.225455 136.647344 
L 803.576044 153.228088 
L 804.627813 142.724174 
L 804.978402 131.853775 
L 805.328992 113.984731 
L 806.030171 93.159616 
L 807.081939 89.251258 
L 807.432529 80.696544 
L 807.783118 92.442381 
L 808.484297 84.761161 
L 809.536066 63.344425 
L 809.886655 59.641025 
L 810.237245 60.218911 
L 810.587834 64.10266 
L 810.938424 39.67723 
L 811.990192 39.331871 
L 812.340782 39.06 
L 812.691371 50.07771 
L 813.041961 45.25964 
L 813.39255 46.000102 
L 814.444319 46.059935 
L 814.794908 45.894998 
L 815.145498 80.440836 
L 815.496087 81.662956 
L 815.846677 77.425009 
L 816.898446 81.360985 
L 817.249035 76.968715 
L 817.950214 75.77074 
L 818.300804 90.020936 
L 820.75493 138.247559 
L 821.806699 134.239795 
L 822.157288 148.151722 
L 822.507878 154.288139 
L 823.209057 155.042835 
L 824.260825 164.942564 
L 824.611415 184.902023 
L 824.962004 169.685739 
L 825.312594 189.719737 
L 825.663183 186.624229 
L 827.065541 189.360264 
L 827.416131 183.136192 
L 827.76672 181.794279 
L 828.11731 176.19338 
L 829.169078 153.929046 
L 829.519668 138.546666 
L 829.870258 131.836527 
L 830.220847 135.735859 
L 830.571437 128.281777 
L 831.623205 137.748132 
L 831.973795 127.418734 
L 832.324384 136.129331 
L 832.674974 116.204569 
L 833.025563 131.188607 
L 834.427921 107.855124 
L 835.1291 92.956716 
L 835.47969 97.903555 
L 836.882048 111.748841 
L 837.232637 113.127459 
L 837.583227 106.338878 
L 837.933816 102.417588 
L 838.985585 69.284005 
L 839.336174 76.201177 
L 839.686764 103.650444 
L 840.037353 115.187099 
L 840.387943 87.312677 
L 841.439711 101.00916 
L 842.49148 148.226451 
L 842.84207 145.431225 
L 844.945607 187.909717 
L 845.296196 181.803909 
L 846.347965 180.449257 
L 846.698554 176.280484 
L 847.049144 166.600888 
L 847.399733 180.3807 
L 847.750323 164.640623 
L 848.802091 155.65866 
L 849.152681 148.295905 
L 849.85386 153.927961 
L 851.606807 112.628194 
L 851.957397 88.613855 
L 852.307986 145.303443 
L 852.658576 163.104473 
L 853.710344 167.638166 
L 854.060934 178.220882 
L 854.411523 140.541854 
L 854.762113 151.031769 
L 855.112702 145.497627 
L 856.164471 144.161619 
L 856.515061 142.903226 
L 856.86565 150.290727 
L 857.21624 143.835381 
L 858.618598 150.53842 
L 859.319777 141.31597 
L 860.020956 105.505848 
L 861.072724 95.637632 
L 861.423314 80.522223 
L 861.773903 102.944309 
L 862.124493 80.458815 
L 862.475082 112.191492 
L 863.526851 133.611074 
L 863.87744 133.611074 
L 864.22803 122.344686 
L 864.578619 125.492711 
L 864.929209 113.744184 
L 865.980977 103.006461 
L 866.331567 107.533625 
L 866.682156 116.478902 
L 867.032746 120.767251 
L 867.383335 123.228393 
L 868.435104 131.712522 
L 868.785693 139.079649 
L 869.136283 149.809955 
L 869.486872 136.025312 
L 869.837462 135.195426 
L 871.23982 122.188242 
L 871.59041 116.071589 
L 871.940999 120.020707 
L 872.291589 120.335717 
L 873.343357 158.371772 
L 873.693947 161.084377 
L 874.044536 160.741851 
L 874.395126 163.608704 
L 874.745715 149.198065 
L 875.797484 149.174658 
L 876.148073 139.818972 
L 876.498663 137.363493 
L 876.849252 133.711568 
L 877.199842 122.26779 
L 878.25161 134.132993 
L 878.6022 144.614928 
L 878.952789 139.079807 
L 879.653968 126.14952 
L 880.705737 127.29403 
L 881.056326 136.525124 
L 881.757505 125.368218 
L 882.108095 137.650137 
L 883.159863 113.106533 
L 883.510453 108.879166 
L 883.861043 80.753593 
L 884.211632 79.585578 
L 885.61399 83.635958 
L 885.96458 87.189777 
L 886.315169 70.562092 
L 886.665759 70.080046 
L 887.016348 85.415935 
L 888.068117 100.067898 
L 888.418706 92.817054 
L 888.769296 93.340218 
L 889.470475 88.55851 
L 890.872833 97.794121 
L 891.223422 117.244372 
L 891.574012 125.433051 
L 891.924601 98.114504 
L 892.97637 97.560766 
L 893.677549 146.834122 
L 894.028138 147.906617 
L 894.378728 158.35694 
L 895.430496 155.182611 
L 895.781086 163.718546 
L 896.131675 115.964908 
L 896.832854 88.85097 
L 897.884623 97.428914 
L 898.235213 93.090328 
L 898.585802 87.324325 
L 898.936392 88.992216 
L 899.286981 92.390715 
L 900.33875 86.707372 
L 900.689339 81.090282 
L 901.039929 90.007764 
L 901.390518 77.912391 
L 901.741108 76.023247 
L 902.792876 76.558296 
L 903.494055 95.465308 
L 903.844645 113.652364 
L 904.195234 106.918003 
L 905.597592 126.35769 
L 905.948182 109.754335 
L 906.649361 99.715188 
L 907.701129 104.274176 
L 908.402308 124.573398 
L 908.752898 113.827641 
L 910.155256 104.672337 
L 910.505845 105.932204 
L 910.856435 106.559973 
L 911.207025 113.763291 
L 911.557614 99.324567 
L 912.609383 80.808014 
L 912.959972 94.738046 
L 913.310562 102.013705 
L 913.661151 95.737372 
L 914.011741 94.776285 
L 915.063509 88.420109 
L 915.414099 64.470918 
L 916.465867 70.398149 
L 917.868225 79.518226 
L 918.218815 72.987426 
L 918.569404 101.385056 
L 918.919994 160.511634 
L 919.971762 147.345374 
L 920.322352 141.486544 
L 920.672941 154.097949 
L 921.023531 155.319208 
L 921.37412 133.336155 
L 922.425889 108.612794 
L 922.776478 109.173167 
L 923.127068 123.683555 
L 923.477657 123.166351 
L 923.828247 113.584565 
L 924.880016 103.39852 
L 925.230605 105.432649 
L 925.581195 94.075211 
L 925.931784 62.341099 
L 926.282374 68.712901 
L 927.334142 74.070417 
L 927.684732 74.718957 
L 928.035321 66.900551 
L 928.385911 74.098934 
L 928.7365 100.841942 
L 929.788269 98.819473 
L 930.138858 62.156268 
L 930.840037 83.840065 
L 931.190627 105.798407 
L 932.242395 132.071089 
L 933.294164 143.006631 
L 933.644753 116.888229 
L 935.047111 104.702565 
L 935.397701 101.934731 
L 936.09888 93.953073 
L 937.150648 88.39764 
L 937.501238 93.354887 
L 937.851827 94.414689 
L 938.202417 105.2478 
L 938.553007 109.735114 
L 939.604775 95.416977 
L 939.955365 98.103584 
L 940.305954 97.134864 
L 940.656544 90.936733 
L 942.058902 133.227666 
L 942.409491 135.415507 
L 942.760081 146.197229 
L 943.11067 150.262042 
L 943.46126 163.95393 
L 944.513028 187.8628 
L 944.863618 175.409237 
L 945.214207 157.862699 
L 945.915386 152.915014 
L 946.967155 147.375385 
L 947.317744 147.257756 
L 947.668334 162.156378 
L 948.369513 162.475665 
L 949.421281 173.9786 
L 949.771871 175.499268 
L 950.12246 182.287616 
L 950.47305 179.749379 
L 950.823639 179.879119 
L 951.875408 183.874726 
L 952.225998 172.898995 
L 952.927177 199.387744 
L 953.277766 201.607103 
L 954.680124 209.223928 
L 955.381303 198.971119 
L 955.731893 198.569641 
L 956.783661 159.784583 
L 957.134251 138.809958 
L 957.48484 138.287761 
L 957.83543 128.874149 
L 958.186019 126.321215 
L 959.237788 104.975485 
L 959.588377 107.808259 
L 959.938967 94.233778 
L 960.289556 91.080547 
L 960.640146 80.801175 
L 961.691914 61.705298 
L 962.042504 66.049294 
L 962.393093 65.140026 
L 962.743683 102.926245 
L 963.094272 125.572905 
L 964.49663 117.31217 
L 964.84722 113.346517 
L 965.197809 122.625442 
L 965.548399 118.579901 
L 966.600168 132.923353 
L 966.950757 121.987431 
L 967.301347 130.120344 
L 967.651936 131.280082 
L 968.002526 147.647477 
L 969.054294 142.537017 
L 969.404884 142.577057 
L 969.755473 147.683337 
L 970.106063 129.545381 
L 970.456652 123.001695 
L 971.508421 136.579666 
L 971.85901 135.27783 
L 972.2096 126.011319 
L 972.560189 149.915203 
L 972.910779 164.740363 
L 974.313137 179.27609 
L 974.663726 182.530159 
L 975.014316 172.820627 
L 975.364905 176.713726 
L 976.416674 160.620765 
L 976.767263 157.778313 
L 977.468442 141.416404 
L 977.819032 160.540078 
L 978.8708 168.44167 
L 979.22139 143.554606 
L 979.922569 108.774109 
L 981.324927 108.178878 
L 981.675517 128.615636 
L 982.026106 103.093397 
L 982.376696 96.843907 
L 982.727285 93.496612 
L 983.779054 104.825013 
L 984.129643 106.428777 
L 984.480233 94.187665 
L 984.830822 103.521932 
L 985.181412 82.320749 
L 986.23318 72.765158 
L 986.58377 101.240348 
L 986.934359 94.267328 
L 987.284949 94.303853 
L 987.635538 103.856163 
L 988.687307 99.260506 
L 989.388486 106.473922 
L 989.739075 104.562384 
L 990.089665 90.002785 
L 991.141433 96.765903 
L 991.492023 97.051362 
L 991.842612 86.661373 
L 992.193202 94.27837 
L 992.543791 90.704348 
L 993.59556 72.590049 
L 993.94615 77.316079 
L 994.296739 73.535548 
L 994.647329 67.816886 
L 994.997918 53.726584 
L 996.049687 64.877869 
L 996.400276 62.019402 
L 996.750866 60.59944 
L 997.101455 65.098501 
L 997.452045 48.659896 
L 998.854403 55.105123 
L 999.204992 55.701393 
L 999.555582 54.153939 
L 999.906171 61.609372 
L 1000.95794 87.588424 
L 1001.308529 78.114499 
L 1001.659119 100.123504 
L 1002.009708 96.55807 
L 1002.360298 110.92678 
L 1003.412066 119.062877 
L 1003.762656 140.848201 
L 1004.113245 145.396895 
L 1004.463835 142.703438 
L 1004.814424 156.6385 
L 1005.866193 145.239205 
L 1006.216783 144.681565 
L 1006.567372 151.705562 
L 1006.917962 147.373049 
L 1008.32032 141.45791 
L 1008.670909 163.803813 
L 1008.670909 163.803813 
" clip-path="url(#p5271cc4680)" style="fill: none; stroke: #1f77b4; stroke-width: 1.5; stroke-linecap: square"/>
   </g>
   <g id="patch_3">
    <path d="M 145.8 224.28 
L 145.8 30.24 
" style="fill: none; stroke: #000000; stroke-width: 0.8; stroke-linejoin: miter; stroke-linecap: square"/>
   </g>
   <g id="patch_4">
    <path d="M 145.8 224.28 
L 1049.76 224.28 
" style="fill: none; stroke: #000000; stroke-width: 0.8; stroke-linejoin: miter; stroke-linecap: square"/>
   </g>
  </g>
 </g>
 <defs>
  <clipPath id="p5271cc4680">
   <rect x="145.8" y="30.24" width="903.96" height="194.04"/>
  </clipPath>
 </defs>
</svg>
